<svg version="1.1" id="Layer_1" xmlns="http://www.w3.org/2000/svg" xmlns:xlink="http://www.w3.org/1999/xlink" x="0px" y="0px"
	 width="100%" viewBox="0 0 1134 628" enable-background="new 0 0 1134 628" xml:space="preserve">
<path fill="#262424" opacity="1.000000" stroke="none" 
	d="
M722.000000,629.000000 
	C481.333344,629.000000 241.166702,629.000000 1.000032,629.000000 
	C1.000021,419.666687 1.000021,210.333389 1.000011,1.000060 
	C378.999969,1.000040 756.999939,1.000040 1135.000000,1.000020 
	C1135.000000,210.333267 1135.000000,419.666534 1135.000000,628.999878 
	C997.500000,629.000000 860.000000,629.000000 722.000000,629.000000 
M352.500000,31.002314 
	C244.748138,31.002314 136.996262,31.002314 29.037170,31.002314 
	C28.933292,33.233013 28.804609,34.709709 28.804379,36.186424 
	C28.794401,100.347061 28.856611,164.507874 28.676653,228.667999 
	C28.662739,233.628830 30.508730,234.297531 34.743263,234.295563 
	C209.226822,234.214325 383.710419,234.206696 558.193970,234.330643 
	C563.038574,234.334091 564.280273,232.994095 564.268494,228.206924 
	C564.111206,164.379974 564.165466,100.552513 564.151855,36.725182 
	C564.151428,34.959999 563.981873,33.194851 563.869263,31.002151 
	C493.419708,31.002151 423.459839,31.002151 352.500000,31.002314 
M601.472900,156.499725 
	C601.472900,169.952881 601.472900,183.406036 601.472900,196.358337 
	C619.940491,196.358337 637.933167,197.093842 655.818481,196.028198 
	C663.977173,195.542099 672.644409,192.803589 679.831604,188.827957 
	C701.195862,177.010223 711.173950,157.724701 711.951416,133.683105 
	C712.940186,103.107872 692.665710,76.363815 663.556824,70.523201 
	C653.875488,68.580666 643.754700,68.578705 633.816040,68.236275 
	C623.228760,67.871498 612.619080,68.154182 602.266846,68.154182 
	C601.885071,68.996338 601.631958,69.294525 601.631287,69.593285 
	C601.566162,98.228729 601.520203,126.864212 601.472900,156.499725 
M800.089478,239.560745 
	C801.888428,239.873779 803.677856,240.264130 805.487854,240.488235 
	C830.754333,243.616455 861.284424,231.629623 860.896057,194.277771 
	C860.615417,167.282028 860.841492,140.281021 860.841492,113.282356 
	C860.841492,111.531311 860.841492,109.780273 860.841492,108.032181 
	C852.818420,108.032181 845.527649,108.032181 837.977905,108.032181 
	C837.872742,110.119019 837.777344,112.013420 837.633789,114.862991 
	C827.472900,107.635567 816.854797,104.724121 805.192139,106.642738 
	C793.320007,108.595795 783.695007,114.452362 776.806824,124.267380 
	C766.216492,139.357468 762.906799,162.744614 778.228394,182.814468 
	C785.048462,191.748123 794.657532,196.448441 805.756592,198.341644 
	C817.015930,200.262192 827.174744,197.590469 836.820496,191.008698 
	C836.820496,193.308594 836.871765,194.809250 836.812744,196.305557 
	C836.040833,215.869843 823.548523,220.436462 810.042603,219.707153 
	C800.223206,219.176895 792.096924,214.455292 786.027649,207.792313 
	C780.826050,212.714615 775.780334,217.489410 770.445984,222.537338 
	C778.366821,231.438477 788.047302,236.677719 800.089478,239.560745 
M1054.830200,191.821671 
	C1055.516235,191.462265 1056.202393,191.102875 1057.166260,190.597931 
	C1057.385498,192.906464 1057.569092,194.839478 1057.762573,196.877808 
	C1065.393311,196.877808 1072.779053,196.877808 1080.294922,196.877808 
	C1080.294922,167.158554 1080.294922,137.744095 1080.294922,108.081726 
	C1072.672729,108.081726 1065.284180,108.081726 1057.743652,108.081726 
	C1057.531982,110.219009 1057.344604,112.111938 1057.128784,114.292625 
	C1055.918579,113.706383 1055.007324,113.363144 1054.197144,112.857971 
	C1038.267334,102.923767 1021.873718,103.354500 1007.018616,113.765320 
	C979.659058,132.939560 981.750122,175.346893 1008.624390,192.073654 
	C1023.202942,201.147400 1042.017456,201.239883 1054.830200,191.821671 
M967.439087,128.005157 
	C970.184937,128.005157 972.930786,128.005157 975.481812,128.005157 
	C975.481812,120.829750 975.481812,114.428062 975.481812,107.697861 
	C967.184021,107.697861 959.241577,107.697861 950.744873,107.697861 
	C950.744873,99.317909 950.744873,91.266533 950.744873,83.325096 
	C942.437805,83.325096 934.697205,83.325096 926.998047,83.325096 
	C926.998047,111.279976 926.737549,138.908890 927.211121,166.525223 
	C927.309448,172.260483 929.157532,178.467529 931.875183,183.563354 
	C940.545532,199.821198 965.460876,201.506653 979.135803,196.600937 
	C977.945007,190.178635 976.744995,183.706207 975.520081,177.099503 
	C971.945312,177.363708 968.822632,177.808243 965.703247,177.785980 
	C955.273315,177.711533 950.910034,173.280609 950.844849,162.901657 
	C950.811462,157.574936 950.838684,152.247864 950.838684,146.920944 
	C950.838623,140.678391 950.838745,134.435837 950.838745,128.005112 
	C956.499268,128.005112 961.476746,128.005112 967.439087,128.005157 
M1125.306763,146.500595 
	C1125.306763,120.449112 1125.306763,94.397621 1125.306763,68.378784 
	C1116.910645,68.378784 1109.302002,68.378784 1101.635254,68.378784 
	C1101.635254,111.303307 1101.635254,154.020401 1101.635254,196.757141 
	C1109.628662,196.757141 1117.342163,196.757141 1125.306885,196.757141 
	C1125.306885,180.119385 1125.306885,163.810013 1125.306763,146.500595 
M100.880859,374.454651 
	C104.705116,358.507904 108.529366,342.561157 112.418663,326.343201 
	C108.688599,326.343201 105.574150,326.343201 102.251495,326.343201 
	C97.767403,346.242340 93.320610,365.975952 88.606766,386.894653 
	C82.787857,365.821991 77.320595,346.022766 71.875908,326.305267 
	C68.758842,326.305267 66.124161,326.305267 63.250774,326.305267 
	C57.615761,346.227051 52.010628,366.043213 46.342407,386.082397 
	C45.864326,385.540466 45.525806,385.332977 45.465557,385.063293 
	C41.696438,368.192627 37.969803,351.312500 34.193363,334.443481 
	C32.245277,325.741577 32.206722,325.745972 23.425762,326.208801 
	C23.156839,326.222992 22.903255,326.528290 22.368711,326.875916 
	C28.468378,352.117523 34.591095,377.454529 40.714146,402.792877 
	C44.025581,402.792877 46.954685,402.792877 50.091309,402.792877 
	C55.912415,382.895813 61.691257,363.143250 67.625397,342.859863 
	C73.389534,363.209137 79.027222,383.112000 84.625069,402.874207 
	C88.018555,402.874207 90.833130,402.874207 93.874924,402.874207 
	C96.155548,393.620636 98.417503,384.442841 100.880859,374.454651 
M728.001221,149.500000 
	C728.001221,165.275269 728.001221,181.050522 728.001221,196.899170 
	C736.219299,196.899170 743.943420,196.899170 751.673584,196.899170 
	C751.673584,167.081741 751.673584,137.533463 751.673584,108.004715 
	C743.729004,108.004715 736.111145,108.004715 728.001160,108.004715 
	C728.001160,121.613663 728.001160,135.056824 728.001221,149.500000 
M905.837952,185.478622 
	C905.837952,159.730469 905.837952,133.982315 905.837952,108.107101 
	C897.598450,108.107101 889.877686,108.107101 882.152954,108.107101 
	C882.152954,137.904251 882.152954,167.418915 882.152954,196.787506 
	C890.194763,196.787506 897.903381,196.787506 905.837952,196.787506 
	C905.837952,193.092072 905.837952,189.781357 905.837952,185.478622 
M862.193970,371.500122 
	C862.193970,363.071991 862.193970,354.643890 862.193970,346.245117 
	C858.846130,346.245117 856.090881,346.245117 853.360413,346.245117 
	C853.131775,348.105957 852.938843,349.676056 852.675476,351.819275 
	C851.796021,351.050110 851.336853,350.641388 850.870178,350.241516 
	C840.446594,341.309235 825.377869,343.364349 818.761780,355.370972 
	C811.567871,368.426331 812.104553,381.982147 819.647705,394.803253 
	C824.300232,402.711212 833.278015,405.792542 842.250488,403.211456 
	C845.641235,402.236115 848.764404,400.330750 852.172363,398.774994 
	C852.682800,405.059967 852.524963,411.585052 846.065125,415.119049 
	C836.910339,420.127411 828.848450,416.923004 821.854004,409.927582 
	C820.105835,411.993469 818.626343,413.741760 817.171387,415.461151 
	C824.261841,424.333160 836.337158,427.688354 847.473083,423.997772 
	C856.949768,420.857056 862.012146,413.055267 862.164856,400.978210 
	C862.284912,391.486938 862.192200,381.992950 862.193970,371.500122 
M189.835419,534.643127 
	C189.510147,531.831604 189.359390,528.986694 188.829117,526.214417 
	C186.643280,514.786621 179.023071,507.543549 168.983063,506.989502 
	C162.173737,506.613708 156.327713,508.747070 151.321899,513.699158 
	C150.916061,511.509277 150.599167,509.799347 150.293579,508.150391 
	C147.303833,508.150391 144.672974,508.150391 141.917374,508.150391 
	C141.917374,534.455627 141.917374,560.570435 141.917374,586.758667 
	C145.081482,586.758667 148.024673,586.758667 151.448334,586.758667 
	C151.448334,577.982788 151.448334,569.414185 151.448334,560.128540 
	C153.163574,561.283020 154.196930,562.028198 155.277084,562.697998 
	C167.071716,570.011536 181.867416,565.566406 186.756287,552.614990 
	C188.762970,547.298950 188.892090,541.274109 189.835419,534.643127 
M260.921265,530.500000 
	C260.921265,541.920227 260.921265,553.340454 260.921265,564.784058 
	C264.261597,564.784058 267.033417,564.784058 269.765381,564.784058 
	C269.994415,562.846313 270.195221,561.147339 270.450317,558.989014 
	C271.448456,559.810181 271.949280,560.209106 272.436096,560.624573 
	C283.865479,570.378235 300.108612,566.888428 305.995026,553.097351 
	C310.557251,542.408752 310.413574,531.355103 306.331573,520.536499 
	C302.649017,510.776703 294.730438,505.788086 284.392365,507.233887 
	C279.742188,507.884216 275.356140,510.423309 270.644470,512.182251 
	C270.644470,503.248230 270.644470,493.831604 270.644470,484.304596 
	C267.206055,484.304596 264.164459,484.304596 260.921082,484.304596 
	C260.921082,499.580566 260.921082,514.540283 260.921265,530.500000 
M765.749084,398.277405 
	C765.914490,399.728394 766.079834,401.179382 766.265259,402.806396 
	C769.173645,402.806396 771.927246,402.806396 774.739197,402.806396 
	C774.739197,375.763123 774.739197,348.926636 774.739197,322.318665 
	C771.447144,322.318665 768.526794,322.318665 765.044556,322.318665 
	C765.044556,331.951538 765.044556,341.265533 765.044556,351.003296 
	C750.821533,339.914551 734.065552,344.484070 729.291870,361.080292 
	C727.215881,368.297577 727.067566,376.645386 728.275879,384.118866 
	C731.382141,403.330048 749.817810,409.954041 765.749084,398.277405 
M91.231461,510.652771 
	C86.454079,513.660583 82.768761,517.345215 82.810249,523.725586 
	C86.017860,523.725586 88.823395,523.725586 91.611931,523.725586 
	C95.167351,516.174500 101.568878,513.138367 109.076401,515.413208 
	C114.809120,517.150269 117.339302,522.405212 116.060104,529.692749 
	C109.269356,530.409973 102.378670,530.477356 95.817368,531.981567 
	C85.320511,534.387939 79.938477,542.334290 81.454643,551.578369 
	C82.936432,560.612854 90.849327,566.838562 101.229622,565.789795 
	C106.566200,565.250610 111.685707,562.562927 116.880768,560.853577 
	C117.167282,561.684937 117.736938,563.337769 118.238358,564.792603 
	C121.773056,564.792603 124.902573,564.792603 127.684280,564.792603 
	C127.201653,559.324829 126.496460,554.059143 126.328758,548.776367 
	C126.096306,541.453735 126.356712,534.116943 126.246521,526.788635 
	C126.057564,514.221741 118.913864,506.889862 106.266197,507.138214 
	C101.440590,507.233002 96.650589,509.141083 91.231461,510.652771 
M235.361038,523.510193 
	C235.560425,525.595032 235.759827,527.679871 236.011688,530.313293 
	C232.998795,530.313293 230.486435,529.983154 228.093567,530.377686 
	C221.919510,531.395630 215.468094,531.897034 209.739944,534.157104 
	C202.650406,536.954285 199.883118,543.591919 200.775146,551.393494 
	C201.519745,557.905579 206.084183,563.040649 212.937454,565.057373 
	C221.475128,567.569702 228.949173,565.280945 235.672501,559.570923 
	C236.352615,561.633789 236.902405,563.301392 237.407639,564.833862 
	C240.963287,564.833862 244.098511,564.833862 246.447388,564.833862 
	C246.184814,556.258423 245.920670,547.851807 245.672394,539.444702 
	C245.505432,533.790527 245.633087,528.111694 245.136093,522.487427 
	C244.540741,515.750061 240.714584,511.066895 234.404678,508.729919 
	C225.582336,505.462402 216.970596,506.267975 209.144287,511.502808 
	C205.031418,514.253784 201.648178,517.906433 202.172241,523.714111 
	C205.300644,523.714111 208.097626,523.714111 211.076767,523.714111 
	C213.034607,516.968994 218.005600,514.763184 224.428345,514.950439 
	C229.723206,515.104858 233.791748,517.084045 235.361038,523.510193 
M579.055481,354.032013 
	C585.001465,357.069458 585.353882,362.284576 584.818726,367.999664 
	C579.035034,368.343842 573.542053,368.358032 568.140625,369.068359 
	C560.767456,370.037964 554.127686,372.814331 551.138794,380.303070 
	C548.721375,386.359924 549.056763,392.484192 553.635864,397.600006 
	C559.180298,403.794342 566.395935,405.273773 574.120361,403.273895 
	C577.949280,402.282623 581.437073,399.974030 585.260925,398.175964 
	C585.691528,399.727173 586.118652,401.265656 586.542664,402.793091 
	C590.152588,402.793091 593.424622,402.793091 596.128601,402.793091 
	C595.716614,397.176331 595.117554,391.750916 594.969055,386.313202 
	C594.769165,378.995636 595.017822,371.666870 594.889465,364.346130 
	C594.730408,355.272339 590.716125,349.006226 583.146912,346.470062 
	C574.670654,343.630005 566.347412,344.322296 558.763916,349.233765 
	C554.406982,352.055542 551.119629,355.856842 551.248596,361.673157 
	C554.568298,361.673157 557.532959,361.673157 560.426941,361.673157 
	C563.233276,353.914398 568.516907,351.610748 579.055481,354.032013 
M203.177795,389.934357 
	C207.673996,404.932098 220.572357,407.934113 238.217194,398.089569 
	C239.952240,403.550568 241.989990,404.280212 249.247192,402.434204 
	C248.845322,396.377594 248.301651,390.454712 248.101379,384.520264 
	C247.905090,378.703339 248.063705,372.874603 248.057007,367.051056 
	C248.037384,350.004456 236.645798,341.400879 219.933624,345.806427 
	C210.356644,348.331024 205.103394,353.735565 204.628754,361.701782 
	C207.607605,361.701782 210.580002,361.701782 213.534622,361.701782 
	C216.445053,354.452393 222.730911,351.335541 230.388657,353.306946 
	C236.465729,354.871399 238.942795,359.817139 237.684692,368.015320 
	C232.265701,368.342377 226.789185,368.402924 221.383774,369.053802 
	C209.165848,370.525024 202.942429,377.501526 203.177795,389.934357 
M969.410889,356.118042 
	C972.382019,359.731995 972.724976,363.793915 971.711853,368.319244 
	C968.973083,368.319244 966.450012,368.045471 964.008423,368.375153 
	C958.605469,369.104675 953.013062,369.463409 947.919006,371.204956 
	C940.329102,373.799713 936.518005,380.633423 937.058411,388.435120 
	C937.558472,395.652710 942.584412,401.187683 950.401978,403.270844 
	C958.624451,405.461914 965.685425,402.926331 972.097534,397.708588 
	C973.952759,403.549194 976.006226,404.284180 983.246521,402.431061 
	C982.844543,396.372192 982.300720,390.447906 982.100586,384.512085 
	C981.904419,378.694061 982.063293,372.864197 982.057190,367.039551 
	C982.039368,349.998322 970.628418,341.391998 953.915710,345.810822 
	C944.320984,348.347626 939.054443,353.782959 938.656677,361.706055 
	C941.636108,361.706055 944.608704,361.706055 947.558838,361.706055 
	C951.087097,352.749847 959.814148,350.257233 969.410889,356.118042 
M459.171906,361.912903 
	C458.797119,369.299957 457.385101,376.817596 458.294617,384.042999 
	C459.605377,394.455780 467.957611,401.766479 478.253265,403.667725 
	C488.789154,405.613342 498.835815,401.546387 504.451965,392.793732 
	C502.712830,391.431396 500.939117,390.041931 498.994904,388.518921 
	C492.393585,395.530396 484.862885,398.565796 476.056122,393.994904 
	C469.593079,390.640442 467.232117,384.621277 467.050079,377.060547 
	C480.062286,377.060547 492.640076,377.060547 506.651093,377.060547 
	C505.155609,369.980469 504.369751,363.405609 502.297211,357.265045 
	C500.295807,351.335175 495.485107,347.636841 489.296539,345.911530 
	C476.657471,342.387878 465.690277,347.986206 459.171906,361.912903 
M471.935547,539.199219 
	C483.691681,539.199219 495.447815,539.199219 508.050507,539.199219 
	C507.389404,533.842529 507.148499,529.047607 506.150879,524.415649 
	C504.242981,515.557068 498.969025,509.542053 489.889557,507.534485 
	C480.440033,505.445099 472.366150,508.230713 466.128357,515.508240 
	C457.919983,525.084778 456.676300,543.223877 463.142853,554.089050 
	C472.401154,569.644958 497.148071,570.186096 506.389038,554.695374 
	C504.637207,553.351440 502.849670,551.980164 500.556030,550.220581 
	C499.650574,551.375549 499.056793,552.413208 498.210297,553.166931 
	C493.107544,557.710144 487.251617,559.242737 480.658356,557.141418 
	C473.884186,554.982422 470.668640,549.753784 469.408844,543.198242 
	C469.181335,542.014465 470.453644,540.542480 471.935547,539.199219 
M166.076157,366.471985 
	C165.850052,365.332855 165.667389,364.183044 165.391342,363.056152 
	C160.918839,344.798889 141.491516,338.792664 127.380150,351.298065 
	C118.764053,358.933533 115.399818,374.820404 120.025497,387.407654 
	C123.545097,396.985077 130.573593,402.672424 140.727280,403.769196 
	C150.730835,404.849823 159.428772,402.193848 165.651550,392.964203 
	C163.730377,391.450317 161.961258,390.056244 159.993530,388.505676 
	C153.433868,395.541901 145.900513,398.547821 137.094711,394.014374 
	C130.605789,390.673767 128.249390,384.637238 128.023376,377.095886 
	C141.016663,377.095886 153.597229,377.095886 166.741608,377.095886 
	C166.524612,373.541901 166.335129,370.438660 166.076157,366.471985 
M419.239410,357.383820 
	C411.956360,343.742798 395.379852,340.628815 383.804504,350.727203 
	C371.784698,361.213287 370.180847,383.648315 380.629730,395.706665 
	C392.626984,409.551910 416.549561,404.518036 421.068359,392.602875 
	C419.334747,391.291809 417.533386,389.929504 415.650787,388.505737 
	C409.312347,395.489105 402.065186,398.160919 393.431000,394.405945 
	C387.306519,391.742432 383.803864,384.969635 384.236969,377.110596 
	C396.782806,377.110596 409.367065,377.110596 423.177704,377.110596 
	C421.897186,370.288239 420.749817,364.175385 419.239410,357.383820 
M643.004517,371.711304 
	C643.043884,374.541199 642.904297,377.386932 643.153687,380.198181 
	C644.198364,391.973267 651.544128,400.602814 662.640198,403.273834 
	C673.703979,405.937103 684.404480,401.941193 690.201233,392.716949 
	C688.431763,391.361816 686.628235,389.980652 684.875427,388.638275 
	C676.025818,396.320068 668.765015,397.964600 661.704224,394.044495 
	C655.757202,390.742767 652.465576,384.111053 653.541626,377.121460 
	C665.914429,377.121460 678.347839,377.121460 690.961243,377.121460 
	C690.961243,373.484833 691.261719,370.173889 690.911621,366.933289 
	C688.912659,348.432068 670.858032,338.741943 655.968628,348.260071 
	C647.858765,353.444336 643.902893,361.303619 643.004517,371.711304 
M550.422974,545.267273 
	C553.344971,551.434631 551.890625,554.980103 545.550476,557.146118 
	C536.824036,560.127319 529.827148,556.779175 525.710632,547.755249 
	C522.758728,547.755249 519.877075,547.755249 515.608032,547.755249 
	C517.553406,551.781738 518.575989,555.350830 520.709167,558.038391 
	C526.846619,565.770752 539.929199,568.220398 550.564941,564.160339 
	C557.216980,561.621033 561.415894,557.105042 561.842346,549.788025 
	C562.225159,543.218384 558.567566,538.058350 551.108582,535.213928 
	C545.848572,533.207947 540.326111,531.888672 534.917358,530.274353 
	C531.114502,529.139343 528.064331,527.143066 528.415771,522.700562 
	C528.769958,518.222412 531.994995,515.950256 536.055237,515.355042 
	C543.844299,514.213257 548.633362,515.918457 552.366760,524.597778 
	C555.205933,524.597778 558.003540,524.597778 561.864380,524.597778 
	C560.626526,521.213989 560.072754,518.042908 558.456543,515.564819 
	C550.866821,503.927887 528.889343,503.947540 521.045898,515.427551 
	C516.566162,521.984253 517.983032,530.524536 524.715881,534.615723 
	C528.059021,536.647156 532.016113,537.673340 535.706116,539.127441 
	C540.438232,540.992188 545.180969,542.829834 550.422974,545.267273 
M62.412991,562.021606 
	C67.733086,558.502502 71.184624,553.857117 71.714653,547.199341 
	C68.553902,547.199341 65.776299,547.199341 62.831181,547.199341 
	C61.357803,553.898865 56.886402,557.134705 50.522003,557.873291 
	C44.972973,558.517334 40.358170,556.611511 37.164906,551.881226 
	C32.436810,544.877197 32.444859,528.261292 37.157063,521.189575 
	C40.326500,516.433167 44.935783,514.619690 50.478779,515.039795 
	C55.554127,515.424500 59.210392,518.059692 61.383606,522.617371 
	C64.090385,528.294128 64.992119,528.711792 71.867546,526.765259 
	C71.009811,518.280212 66.909317,512.004333 58.915596,508.842560 
	C50.540356,505.529907 42.075756,505.767639 34.753368,511.365692 
	C23.320835,520.106018 22.385235,532.514771 24.862841,545.274292 
	C28.417870,563.582458 45.333912,571.201172 62.412991,562.021606 
M293.351257,345.918152 
	C280.612976,342.670197 268.942413,347.456696 264.042267,358.619873 
	C259.658295,368.607117 259.557556,379.016907 263.529816,389.225037 
	C266.584900,397.076172 272.511383,401.794800 280.771606,403.539490 
	C294.372559,406.412231 307.915283,397.419189 308.350830,385.191589 
	C305.568939,385.191589 302.790375,385.191589 300.097107,385.191589 
	C297.263031,392.213806 293.640259,395.314056 287.550751,395.895630 
	C281.989044,396.426788 277.382782,394.629181 274.181030,389.908203 
	C269.443756,382.923187 269.436096,366.316345 274.137634,359.224792 
	C277.294312,354.463440 281.887085,352.628052 287.434448,353.035950 
	C292.509308,353.409149 296.174408,356.022858 298.361755,360.574005 
	C301.127350,366.328339 301.820801,366.666107 308.912628,364.805420 
	C307.886383,355.470215 302.982056,349.249084 293.351257,345.918152 
M364.823181,365.172394 
	C364.684753,363.394348 364.865173,361.518372 364.354309,359.854675 
	C361.737732,351.333466 355.550110,346.595703 347.063904,345.263733 
	C337.576599,343.774628 329.036499,346.146973 323.190491,354.319031 
	C316.400452,363.810669 316.105896,374.540527 318.793030,385.380646 
	C322.631866,400.866760 338.309357,408.275146 352.883972,401.807373 
	C360.293915,398.519073 365.040649,391.809814 364.619019,385.200531 
	C361.840576,385.200531 359.062134,385.200531 356.357544,385.200531 
	C354.006470,392.388977 349.333862,395.956665 342.413605,396.006195 
	C335.869110,396.053040 330.907593,392.483856 328.731110,385.713287 
	C326.269104,378.054535 326.292633,370.280518 328.977112,362.684174 
	C331.671906,355.058685 339.087341,351.269745 346.535706,353.445679 
	C352.481018,355.182526 355.267059,359.645935 356.429291,365.561279 
	C359.080505,365.561279 361.565735,365.561279 364.823181,365.172394 
M906.905334,358.599731 
	C906.924744,369.248566 906.785889,379.900787 907.012939,390.545197 
	C907.200134,399.321442 912.033203,404.010223 920.282898,404.014008 
	C927.767883,404.017395 928.387573,403.246155 927.014404,395.414154 
	C925.425842,395.487030 923.462952,396.174194 922.274902,395.498596 
	C920.235718,394.338989 917.218079,392.380951 917.156555,390.666748 
	C916.717346,378.423035 916.922058,366.156158 916.922058,353.340607 
	C920.498352,353.340607 923.716797,353.340607 927.051270,353.340607 
	C927.051270,350.663666 927.051270,348.548737 927.051270,345.970703 
	C923.664856,345.970703 920.408997,345.970703 916.622009,345.970703 
	C916.622009,341.124969 916.622009,336.729706 916.622009,332.296173 
	C913.144226,332.296173 910.221436,332.296173 906.793213,332.296173 
	C906.793213,336.923706 906.793213,341.321442 906.793213,346.205505 
	C903.056091,346.205505 899.831055,346.205505 896.701660,346.205505 
	C896.701660,348.821045 896.701660,350.914551 896.701660,353.412964 
	C900.079895,353.412964 903.186584,353.412964 906.582825,353.412964 
	C906.709961,355.075073 906.807495,356.350006 906.905334,358.599731 
M403.680908,536.500000 
	C403.717163,541.825806 403.564484,547.161072 403.828430,552.475525 
	C404.404480,564.073364 413.367859,569.273315 423.979126,564.373901 
	C423.979126,562.054626 423.979126,559.764526 423.979126,557.461609 
	C414.831635,558.101868 413.341003,556.706299 413.302795,547.642151 
	C413.283875,543.147827 413.298065,538.653381 413.297852,534.158997 
	C413.297546,528.068848 413.297760,521.978699 413.297760,515.412842 
	C417.251038,515.412842 420.504730,515.412842 423.709229,515.412842 
	C423.709229,512.665833 423.709229,510.420624 423.709229,507.777771 
	C420.167358,507.777771 416.913177,507.777771 413.100220,507.777771 
	C413.100220,503.003571 413.100220,498.625549 413.100220,494.280487 
	C409.733398,494.280487 406.960480,494.280487 403.633636,494.280487 
	C403.633636,498.874054 403.633636,503.271912 403.633636,508.132660 
	C399.832703,508.132660 396.586670,508.132660 393.333618,508.132660 
	C393.333618,510.731567 393.333618,512.843262 393.333618,515.534668 
	C396.763336,515.534668 400.004303,515.534668 403.680939,515.534668 
	C403.680939,522.572205 403.680939,529.036316 403.680908,536.500000 
M623.299194,378.455750 
	C623.299194,370.330200 623.299194,362.204681 623.299194,353.408386 
	C627.113037,353.408386 630.471985,353.408386 633.822876,353.408386 
	C633.822876,350.611389 633.822876,348.498840 633.822876,345.799835 
	C630.288452,345.799835 626.905945,345.799835 623.159668,345.799835 
	C623.159668,340.960114 623.159668,336.701660 623.159668,332.341919 
	C619.835815,332.341919 616.931519,332.341919 613.473877,332.341919 
	C613.473877,337.001099 613.473877,341.389496 613.473877,346.263397 
	C609.682739,346.263397 606.449158,346.263397 603.423340,346.263397 
	C603.423340,348.869720 603.423340,350.966125 603.423340,353.678101 
	C606.918640,353.678101 610.137207,353.678101 613.745544,353.678101 
	C613.745544,366.095428 613.521790,377.897766 613.807495,389.687744 
	C614.102173,401.850525 622.270935,406.939972 633.902100,402.578430 
	C633.902100,400.177704 633.902100,397.772949 633.902100,395.340912 
	C625.110168,396.276642 623.360107,394.675140 623.299988,385.929596 
	C623.285095,383.765533 623.298828,381.601257 623.299194,378.455750 
M434.413055,361.499756 
	C434.413055,375.256989 434.413055,389.014252 434.413055,402.837189 
	C437.976624,402.837189 440.932739,402.837189 444.034302,402.837189 
	C444.034302,375.885742 444.034302,349.119904 444.034302,322.303406 
	C440.831879,322.303406 437.779266,322.303406 434.412964,322.303406 
	C434.412964,335.251160 434.412964,347.875427 434.413055,361.499756 
M1008.008911,335.508240 
	C1008.008911,331.071259 1008.008911,326.634247 1008.008911,322.201660 
	C1004.484741,322.201660 1001.547852,322.201660 998.375671,322.201660 
	C998.375671,349.139465 998.375671,375.864777 998.375671,402.712708 
	C1001.672546,402.712708 1004.722351,402.712708 1008.008850,402.712708 
	C1008.008850,380.445465 1008.008850,358.475189 1008.008911,335.508240 
M526.368164,347.690735 
	C523.408936,346.893127 520.449768,346.095520 517.138062,345.202911 
	C517.138062,365.202362 517.138062,383.908203 517.138062,402.667847 
	C520.396667,402.667847 523.426514,402.667847 526.738770,402.667847 
	C526.738770,390.213684 526.720825,378.102570 526.746338,365.991547 
	C526.759094,359.937439 529.940857,356.012878 535.942139,354.917206 
	C538.510742,354.448212 541.171509,354.484161 544.128296,354.265717 
	C544.228699,353.133026 544.250000,351.834686 544.472290,350.571655 
	C545.324585,345.728912 542.934387,343.885315 538.650024,345.127838 
	C534.530212,346.322693 530.668701,348.408234 526.670044,350.112488 
	C526.668762,350.104645 526.539551,349.313416 526.368164,347.690735 
M348.816986,546.499512 
	C348.816986,552.586792 348.816986,558.674072 348.816986,564.723145 
	C352.387268,564.723145 355.315247,564.723145 358.136108,564.723145 
	C358.136108,537.722900 358.136108,510.999634 358.136108,484.291382 
	C354.884003,484.291382 351.969238,484.291382 348.816986,484.291382 
	C348.816986,504.886841 348.816986,525.193176 348.816986,546.499512 
M732.250610,68.649902 
	C726.668579,71.627823 725.055481,76.665245 725.621765,82.450760 
	C726.191101,88.266998 729.681946,92.139061 735.153809,93.995316 
	C740.736267,95.889107 745.917969,95.114067 750.235046,90.787605 
	C755.477722,85.533577 756.101562,78.481750 751.923706,72.281075 
	C747.987488,66.439003 740.578308,64.860687 732.250610,68.649902 
M892.734009,94.902214 
	C894.679138,94.597610 896.704102,94.540588 898.554993,93.943810 
	C905.144470,91.819138 908.544189,86.626656 908.186462,79.591782 
	C907.868591,73.342834 903.754883,68.436737 897.514160,66.863731 
	C889.538574,64.853447 881.211182,69.497147 879.365234,77.284935 
	C877.512268,85.101959 882.969360,93.771286 892.734009,94.902214 
M322.412567,559.300171 
	C322.412567,561.092651 322.412567,562.885132 322.412567,564.848083 
	C325.872681,564.848083 328.827515,564.848083 331.870575,564.848083 
	C331.870575,545.874146 331.870575,527.023987 331.870575,508.226135 
	C328.630707,508.226135 325.711609,508.226135 322.412384,508.226135 
	C322.412384,525.118469 322.412384,541.731689 322.412567,559.300171 
M384.835571,549.495361 
	C384.835571,535.731689 384.835571,521.967957 384.835571,508.162109 
	C381.264771,508.162109 378.328918,508.162109 375.356323,508.162109 
	C375.356323,527.223999 375.356323,546.076782 375.356323,564.704102 
	C378.667694,564.704102 381.597351,564.704102 384.835663,564.704102 
	C384.835663,559.765991 384.835663,555.129578 384.835571,549.495361 
M801.008423,380.499969 
	C801.008423,369.061493 801.008423,357.623016 801.008423,346.359222 
	C797.378784,346.359222 794.332581,346.359222 791.370239,346.359222 
	C791.370239,365.367706 791.370239,383.973419 791.370239,402.718323 
	C794.661316,402.718323 797.711182,402.718323 801.008362,402.718323 
	C801.008362,395.452454 801.008362,388.476166 801.008423,380.499969 
M887.169067,346.164520 
	C884.227966,346.164520 881.286865,346.164520 878.211487,346.164520 
	C878.211487,365.161072 878.211487,383.904999 878.211487,402.667908 
	C881.494202,402.667908 884.537598,402.667908 887.751770,402.667908 
	C887.751770,383.849396 887.751770,365.374420 887.169067,346.164520 
M446.008423,543.499878 
	C446.008423,531.728210 446.008423,519.956543 446.008423,508.358643 
	C442.379150,508.358643 439.333160,508.358643 436.370300,508.358643 
	C436.370300,527.366882 436.370300,545.972473 436.370300,564.718140 
	C439.661011,564.718140 442.710724,564.718140 445.696106,564.718140 
	C445.837952,564.117859 445.974365,563.807434 445.975372,563.496704 
	C445.995728,557.164429 446.000549,550.832153 446.008423,543.499878 
M377.403046,487.713379 
	C376.405029,489.909821 374.790558,492.070679 374.661011,494.317230 
	C374.593079,495.495544 377.033997,497.710480 378.510559,497.867065 
	C380.495117,498.077515 383.293182,497.318909 384.521515,495.911224 
	C385.568390,494.711487 385.753906,491.161987 384.776001,490.161285 
	C383.238464,488.587860 380.403168,488.282623 377.403046,487.713379 
M887.858093,327.686371 
	C885.304688,324.618530 881.913330,323.982635 879.272156,326.651459 
	C877.886841,328.051270 877.242554,332.202606 878.277100,333.477478 
	C879.625305,335.138763 883.234314,336.218445 885.396606,335.672272 
	C888.638367,334.853455 889.439575,331.677460 887.858093,327.686371 
M445.790588,496.353638 
	C447.590027,493.450867 447.719604,490.304688 444.775269,488.539368 
	C443.023499,487.489075 439.628326,487.290771 438.075195,488.340912 
	C436.587433,489.346924 435.716400,492.578766 436.012543,494.624084 
	C436.558075,498.391510 440.232025,499.107574 445.790588,496.353638 
M793.310730,335.751251 
	C796.511353,336.483948 800.086548,336.920990 801.207153,333.137268 
	C801.795837,331.149780 800.885559,327.271271 799.438965,326.488434 
	C797.562622,325.473022 793.721741,325.786041 792.084412,327.153290 
	C789.419800,329.378510 789.874573,332.730896 793.310730,335.751251 
M331.744812,488.941650 
	C327.074249,486.297363 322.720215,487.105774 322.167572,491.073181 
	C321.894501,493.033600 322.718140,496.234100 324.118134,497.063812 
	C325.851898,498.091339 329.763672,498.170135 330.804352,496.976257 
	C332.222473,495.349518 331.817169,492.133270 331.744812,488.941650 
z"/>
<path fill="#C6363D" opacity="1.000000" stroke="none" 
	d="
M353.000000,31.002232 
	C423.459839,31.002151 493.419708,31.002151 563.869263,31.002151 
	C563.981873,33.194851 564.151428,34.959999 564.151855,36.725182 
	C564.165466,100.552513 564.111206,164.379974 564.268494,228.206924 
	C564.280273,232.994095 563.038574,234.334091 558.193970,234.330643 
	C383.710419,234.206696 209.226822,234.214325 34.743263,234.295563 
	C30.508730,234.297531 28.662739,233.628830 28.676653,228.667999 
	C28.856611,164.507874 28.794401,100.347061 28.804379,36.186424 
	C28.804609,34.709709 28.933292,33.233013 29.037170,31.002314 
	C136.996262,31.002314 244.748138,31.002314 353.000000,31.002232 
M233.862442,68.185364 
	C233.241211,69.795631 232.081619,71.404541 232.077545,73.016365 
	C231.976929,112.846321 231.995972,152.676575 232.009293,192.506790 
	C232.009781,193.953690 232.168045,195.400528 232.252655,196.845154 
	C242.667007,196.845154 252.735840,196.845154 263.355927,196.845154 
	C263.355927,171.178406 263.355927,145.829224 263.355927,119.389969 
	C268.666260,125.570671 273.217987,130.829269 277.727356,136.123901 
	C294.117462,155.368073 310.477386,174.638000 326.909698,193.846039 
	C328.035370,195.161865 329.637512,196.950546 331.060486,196.990021 
	C340.963593,197.264648 350.877930,197.135056 360.725464,197.135056 
	C360.725464,153.806747 360.725464,111.215164 360.725464,68.465164 
	C350.379974,68.465164 340.312866,68.465164 329.619995,68.465164 
	C329.619995,94.093147 329.619995,119.425087 329.619995,145.810913 
	C327.922607,143.956284 327.011719,143.019791 326.165680,142.027939 
	C306.092163,118.495201 285.990479,94.986237 266.011383,71.373581 
	C263.979492,68.972183 261.935364,68.002136 258.800079,68.089096 
	C250.806824,68.310776 242.803391,68.164825 233.862442,68.185364 
M520.738586,104.875122 
	C508.782440,82.109764 490.118622,69.310707 464.301971,68.489082 
	C442.846130,67.806244 421.353912,68.262108 399.877777,68.242920 
	C399.437469,68.242531 398.996826,68.600906 398.432251,68.845711 
	C398.432251,78.945419 398.432251,89.011345 398.432251,99.629951 
	C403.769836,99.629951 408.850983,99.629951 414.067688,99.629951 
	C414.067688,122.021225 414.067688,143.855850 414.067688,166.191727 
	C408.612915,166.191727 403.538483,166.191727 398.511353,166.191727 
	C398.511353,176.764481 398.511353,186.829819 398.511353,197.052063 
	C420.336029,197.052063 441.812439,197.347305 463.272461,196.883438 
	C470.281769,196.731918 477.624237,195.623703 484.172180,193.210587 
	C520.488708,179.826828 536.471375,141.318069 520.738586,104.875122 
M84.491432,197.173019 
	C88.576576,197.173019 92.661720,197.173019 97.149918,197.173019 
	C97.149918,191.379288 97.149918,186.287552 97.149918,181.220123 
	C119.450035,181.220123 141.321640,181.220123 163.698303,181.220123 
	C163.698303,186.679825 163.698303,191.762131 163.698303,196.848450 
	C174.281342,196.848450 184.351715,196.848450 194.841827,196.848450 
	C194.841827,195.063950 194.841843,193.599472 194.841827,192.134995 
	C194.841614,172.487518 195.210419,152.831406 194.751480,133.194641 
	C194.122055,106.264000 181.860123,86.175575 157.353500,74.465569 
	C116.711311,55.045506 68.184944,83.669365 66.197090,128.590439 
	C65.204445,151.022003 66.062935,173.535553 66.107620,196.011978 
	C66.108170,196.287018 66.420906,196.561447 66.792686,197.172958 
	C72.225662,197.172958 77.859772,197.172958 84.491432,197.173019 
z"/>
<path fill="#FAFAFA" opacity="1.000000" stroke="none" 
	d="
M601.473022,155.999710 
	C601.520203,126.864212 601.566162,98.228729 601.631287,69.593285 
	C601.631958,69.294525 601.885071,68.996338 602.266846,68.154182 
	C612.619080,68.154182 623.228760,67.871498 633.816040,68.236275 
	C643.754700,68.578705 653.875488,68.580666 663.556824,70.523201 
	C692.665710,76.363815 712.940186,103.107872 711.951416,133.683105 
	C711.173950,157.724701 701.195862,177.010223 679.831604,188.827957 
	C672.644409,192.803589 663.977173,195.542099 655.818481,196.028198 
	C637.933167,197.093842 619.940491,196.358337 601.472900,196.358337 
	C601.472900,183.406036 601.472900,169.952881 601.473022,155.999710 
M626.984192,90.811317 
	C626.831177,100.934448 626.586548,111.057198 626.545410,121.180786 
	C626.473022,138.957748 626.525208,156.735214 626.525208,174.990082 
	C632.790222,174.990082 638.746399,175.014664 644.702332,174.985809 
	C670.154175,174.862549 686.752930,158.383286 687.066895,132.945221 
	C687.323242,112.164696 674.916748,95.124008 655.597229,91.579987 
	C646.547058,89.919785 637.062744,90.626213 626.984192,90.811317 
z"/>
<path fill="#FBFBFB" opacity="1.000000" stroke="none" 
	d="
M799.715332,239.369781 
	C788.047302,236.677719 778.366821,231.438477 770.445984,222.537338 
	C775.780334,217.489410 780.826050,212.714615 786.027649,207.792313 
	C792.096924,214.455292 800.223206,219.176895 810.042603,219.707153 
	C823.548523,220.436462 836.040833,215.869843 836.812744,196.305557 
	C836.871765,194.809250 836.820496,193.308594 836.820496,191.008698 
	C827.174744,197.590469 817.015930,200.262192 805.756592,198.341644 
	C794.657532,196.448441 785.048462,191.748123 778.228394,182.814468 
	C762.906799,162.744614 766.216492,139.357468 776.806824,124.267380 
	C783.695007,114.452362 793.320007,108.595795 805.192139,106.642738 
	C816.854797,104.724121 827.472900,107.635567 837.633789,114.862991 
	C837.777344,112.013420 837.872742,110.119019 837.977905,108.032181 
	C845.527649,108.032181 852.818420,108.032181 860.841492,108.032181 
	C860.841492,109.780273 860.841492,111.531311 860.841492,113.282356 
	C860.841492,140.281021 860.615417,167.282028 860.896057,194.277771 
	C861.284424,231.629623 830.754333,243.616455 805.487854,240.488235 
	C803.677856,240.264130 801.888428,239.873779 799.715332,239.369781 
M823.529602,175.459702 
	C833.482666,171.126755 838.102905,168.661560 836.872498,156.029160 
	C836.566956,152.892380 836.387512,149.625458 836.913696,146.548981 
	C838.176331,139.167435 834.155823,135.179962 828.522827,131.814865 
	C817.931274,125.487526 804.412720,127.570053 797.016113,136.808121 
	C789.697571,145.948669 790.211121,160.842209 798.139282,169.367401 
	C804.995056,176.739410 813.472961,177.952652 823.529602,175.459702 
z"/>
<path fill="#FAFAFA" opacity="1.000000" stroke="none" 
	d="
M1054.483398,192.025543 
	C1042.017456,201.239883 1023.202942,201.147400 1008.624390,192.073654 
	C981.750122,175.346893 979.659058,132.939560 1007.018616,113.765320 
	C1021.873718,103.354500 1038.267334,102.923767 1054.197144,112.857971 
	C1055.007324,113.363144 1055.918579,113.706383 1057.128784,114.292625 
	C1057.344604,112.111938 1057.531982,110.219009 1057.743652,108.081726 
	C1065.284180,108.081726 1072.672729,108.081726 1080.294922,108.081726 
	C1080.294922,137.744095 1080.294922,167.158554 1080.294922,196.877808 
	C1072.779053,196.877808 1065.393311,196.877808 1057.762573,196.877808 
	C1057.569092,194.839478 1057.385498,192.906464 1057.166260,190.597931 
	C1056.202393,191.102875 1055.516235,191.462265 1054.483398,192.025543 
M1027.195190,129.385788 
	C1017.320801,132.921692 1012.609924,140.460052 1011.701782,150.410950 
	C1010.804077,160.247116 1014.198120,168.605423 1022.982910,173.648651 
	C1031.794800,178.707336 1040.810181,177.673508 1049.406982,172.538391 
	C1054.493530,169.500107 1057.301025,165.427643 1056.586182,159.035919 
	C1056.034668,154.105484 1056.180054,149.041473 1056.562134,144.078903 
	C1056.899170,139.699951 1054.964600,136.838516 1051.796265,134.393951 
	C1044.677612,128.901688 1036.769287,126.956947 1027.195190,129.385788 
z"/>
<path fill="#FCFCFC" opacity="1.000000" stroke="none" 
	d="
M966.946655,128.005127 
	C961.476746,128.005112 956.499268,128.005112 950.838745,128.005112 
	C950.838745,134.435837 950.838623,140.678391 950.838684,146.920944 
	C950.838684,152.247864 950.811462,157.574936 950.844849,162.901657 
	C950.910034,173.280609 955.273315,177.711533 965.703247,177.785980 
	C968.822632,177.808243 971.945312,177.363708 975.520081,177.099503 
	C976.744995,183.706207 977.945007,190.178635 979.135803,196.600937 
	C965.460876,201.506653 940.545532,199.821198 931.875183,183.563354 
	C929.157532,178.467529 927.309448,172.260483 927.211121,166.525223 
	C926.737549,138.908890 926.998047,111.279976 926.998047,83.325096 
	C934.697205,83.325096 942.437805,83.325096 950.744873,83.325096 
	C950.744873,91.266533 950.744873,99.317909 950.744873,107.697861 
	C959.241577,107.697861 967.184021,107.697861 975.481812,107.697861 
	C975.481812,114.428062 975.481812,120.829750 975.481812,128.005157 
	C972.930786,128.005157 970.184937,128.005157 966.946655,128.005127 
z"/>
<path fill="#FBFBFB" opacity="1.000000" stroke="none" 
	d="
M1125.306885,147.000610 
	C1125.306885,163.810013 1125.306885,180.119385 1125.306885,196.757141 
	C1117.342163,196.757141 1109.628662,196.757141 1101.635254,196.757141 
	C1101.635254,154.020401 1101.635254,111.303307 1101.635254,68.378784 
	C1109.302002,68.378784 1116.910645,68.378784 1125.306763,68.378784 
	C1125.306763,94.397621 1125.306763,120.449112 1125.306885,147.000610 
z"/>
<path fill="#F9F9F9" opacity="1.000000" stroke="none" 
	d="
M100.780151,374.859863 
	C98.417503,384.442841 96.155548,393.620636 93.874924,402.874207 
	C90.833130,402.874207 88.018555,402.874207 84.625069,402.874207 
	C79.027222,383.112000 73.389534,363.209137 67.625397,342.859863 
	C61.691257,363.143250 55.912415,382.895813 50.091309,402.792877 
	C46.954685,402.792877 44.025581,402.792877 40.714146,402.792877 
	C34.591095,377.454529 28.468378,352.117523 22.368711,326.875916 
	C22.903255,326.528290 23.156839,326.222992 23.425762,326.208801 
	C32.206722,325.745972 32.245277,325.741577 34.193363,334.443481 
	C37.969803,351.312500 41.696438,368.192627 45.465557,385.063293 
	C45.525806,385.332977 45.864326,385.540466 46.342407,386.082397 
	C52.010628,366.043213 57.615761,346.227051 63.250774,326.305267 
	C66.124161,326.305267 68.758842,326.305267 71.875908,326.305267 
	C77.320595,346.022766 82.787857,365.821991 88.606766,386.894653 
	C93.320610,365.975952 97.767403,346.242340 102.251495,326.343201 
	C105.574150,326.343201 108.688599,326.343201 112.418663,326.343201 
	C108.529366,342.561157 104.705116,358.507904 100.780151,374.859863 
z"/>
<path fill="#FFFFFF" opacity="1.000000" stroke="none" 
	d="
M728.001221,149.000000 
	C728.001160,135.056824 728.001160,121.613663 728.001160,108.004715 
	C736.111145,108.004715 743.729004,108.004715 751.673584,108.004715 
	C751.673584,137.533463 751.673584,167.081741 751.673584,196.899170 
	C743.943420,196.899170 736.219299,196.899170 728.001221,196.899170 
	C728.001221,181.050522 728.001221,165.275269 728.001221,149.000000 
z"/>
<path fill="#FDFDFD" opacity="1.000000" stroke="none" 
	d="
M905.837952,185.974640 
	C905.837952,189.781357 905.837952,193.092072 905.837952,196.787506 
	C897.903381,196.787506 890.194763,196.787506 882.152954,196.787506 
	C882.152954,167.418915 882.152954,137.904251 882.152954,108.107101 
	C889.877686,108.107101 897.598450,108.107101 905.837952,108.107101 
	C905.837952,133.982315 905.837952,159.730469 905.837952,185.974640 
z"/>
<path fill="#F9F9F9" opacity="1.000000" stroke="none" 
	d="
M862.193970,372.000153 
	C862.192200,381.992950 862.284912,391.486938 862.164856,400.978210 
	C862.012146,413.055267 856.949768,420.857056 847.473083,423.997772 
	C836.337158,427.688354 824.261841,424.333160 817.171387,415.461151 
	C818.626343,413.741760 820.105835,411.993469 821.854004,409.927582 
	C828.848450,416.923004 836.910339,420.127411 846.065125,415.119049 
	C852.524963,411.585052 852.682800,405.059967 852.172363,398.774994 
	C848.764404,400.330750 845.641235,402.236115 842.250488,403.211456 
	C833.278015,405.792542 824.300232,402.711212 819.647705,394.803253 
	C812.104553,381.982147 811.567871,368.426331 818.761780,355.370972 
	C825.377869,343.364349 840.446594,341.309235 850.870178,350.241516 
	C851.336853,350.641388 851.796021,351.050110 852.675476,351.819275 
	C852.938843,349.676056 853.131775,348.105957 853.360413,346.245117 
	C856.090881,346.245117 858.846130,346.245117 862.193970,346.245117 
	C862.193970,354.643890 862.193970,363.071991 862.193970,372.000153 
M823.983215,373.596466 
	C825.027039,378.741821 825.267456,384.236359 827.314514,388.945648 
	C829.981140,395.080414 836.708374,397.031281 843.587463,395.014526 
	C849.490723,393.283905 852.395203,389.100769 852.398376,382.314789 
	C852.401123,376.482941 852.801636,370.610870 852.225342,364.836487 
	C851.943848,362.015961 850.484741,358.683105 848.441895,356.782532 
	C841.395142,350.226562 830.162170,352.698517 826.424561,361.560913 
	C824.975159,364.997681 824.774841,368.961243 823.983215,373.596466 
z"/>
<path fill="#FBFBFB" opacity="1.000000" stroke="none" 
	d="
M189.855347,535.107422 
	C188.892090,541.274109 188.762970,547.298950 186.756287,552.614990 
	C181.867416,565.566406 167.071716,570.011536 155.277084,562.697998 
	C154.196930,562.028198 153.163574,561.283020 151.448334,560.128540 
	C151.448334,569.414185 151.448334,577.982788 151.448334,586.758667 
	C148.024673,586.758667 145.081482,586.758667 141.917374,586.758667 
	C141.917374,560.570435 141.917374,534.455627 141.917374,508.150391 
	C144.672974,508.150391 147.303833,508.150391 150.293579,508.150391 
	C150.599167,509.799347 150.916061,511.509277 151.321899,513.699158 
	C156.327713,508.747070 162.173737,506.613708 168.983063,506.989502 
	C179.023071,507.543549 186.643280,514.786621 188.829117,526.214417 
	C189.359390,528.986694 189.510147,531.831604 189.855347,535.107422 
M158.155777,556.694092 
	C164.024826,558.889893 169.600327,558.800659 174.353363,554.188232 
	C182.050659,546.718628 182.057526,526.652588 174.454697,519.103149 
	C170.458115,515.134644 164.343338,514.077209 158.709518,516.380310 
	C153.394806,518.552979 151.315643,521.951477 151.314163,528.474365 
	C151.312897,533.960388 151.627930,539.469604 151.225525,544.925964 
	C150.829346,550.297791 153.025360,553.815979 158.155777,556.694092 
z"/>
<path fill="#F9F9F9" opacity="1.000000" stroke="none" 
	d="
M260.921173,530.000000 
	C260.921082,514.540283 260.921082,499.580566 260.921082,484.304596 
	C264.164459,484.304596 267.206055,484.304596 270.644470,484.304596 
	C270.644470,493.831604 270.644470,503.248230 270.644470,512.182251 
	C275.356140,510.423309 279.742188,507.884216 284.392365,507.233887 
	C294.730438,505.788086 302.649017,510.776703 306.331573,520.536499 
	C310.413574,531.355103 310.557251,542.408752 305.995026,553.097351 
	C300.108612,566.888428 283.865479,570.378235 272.436096,560.624573 
	C271.949280,560.209106 271.448456,559.810181 270.450317,558.989014 
	C270.195221,561.147339 269.994415,562.846313 269.765381,564.784058 
	C267.033417,564.784058 264.261597,564.784058 260.921265,564.784058 
	C260.921265,553.340454 260.921265,541.920227 260.921173,530.000000 
M270.730621,541.410706 
	C270.730774,542.406860 270.728729,543.403076 270.731415,544.399231 
	C270.748718,550.790161 273.930298,555.203979 279.798767,556.980347 
	C286.452301,558.994385 292.962189,557.174255 295.846802,551.492493 
	C300.863129,541.611816 301.009857,531.300171 295.879608,521.399963 
	C292.970490,515.786133 286.489136,513.962585 279.796417,515.932861 
	C273.865692,517.678833 270.742920,521.997253 270.732239,528.482117 
	C270.725647,532.466858 270.730713,536.451538 270.730621,541.410706 
z"/>
<path fill="#F9F9F9" opacity="1.000000" stroke="none" 
	d="
M765.377197,398.129700 
	C749.817810,409.954041 731.382141,403.330048 728.275879,384.118866 
	C727.067566,376.645386 727.215881,368.297577 729.291870,361.080292 
	C734.065552,344.484070 750.821533,339.914551 765.044556,351.003296 
	C765.044556,341.265533 765.044556,331.951538 765.044556,322.318665 
	C768.526794,322.318665 771.447144,322.318665 774.739197,322.318665 
	C774.739197,348.926636 774.739197,375.763123 774.739197,402.806396 
	C771.927246,402.806396 769.173645,402.806396 766.265259,402.806396 
	C766.079834,401.179382 765.914490,399.728394 765.377197,398.129700 
M739.048889,361.891510 
	C738.497498,363.803314 737.684937,365.682404 737.440674,367.632629 
	C736.459961,375.463257 736.035767,383.305359 740.863831,390.219940 
	C744.388306,395.267548 750.589050,396.957275 756.926819,394.930267 
	C762.565979,393.126709 765.313660,389.051086 765.318115,382.470337 
	C765.322021,376.649628 765.097900,370.817963 765.385498,365.011505 
	C765.639893,359.874664 762.896301,356.939453 758.844116,354.862976 
	C751.471130,351.084778 744.105469,353.541199 739.048889,361.891510 
z"/>
<path fill="#F9F9F9" opacity="1.000000" stroke="none" 
	d="
M91.537910,510.437805 
	C96.650589,509.141083 101.440590,507.233002 106.266197,507.138214 
	C118.913864,506.889862 126.057564,514.221741 126.246521,526.788635 
	C126.356712,534.116943 126.096306,541.453735 126.328758,548.776367 
	C126.496460,554.059143 127.201653,559.324829 127.684280,564.792603 
	C124.902573,564.792603 121.773056,564.792603 118.238358,564.792603 
	C117.736938,563.337769 117.167282,561.684937 116.880768,560.853577 
	C111.685707,562.562927 106.566200,565.250610 101.229622,565.789795 
	C90.849327,566.838562 82.936432,560.612854 81.454643,551.578369 
	C79.938477,542.334290 85.320511,534.387939 95.817368,531.981567 
	C102.378670,530.477356 109.269356,530.409973 116.060104,529.692749 
	C117.339302,522.405212 114.809120,517.150269 109.076401,515.413208 
	C101.568878,513.138367 95.167351,516.174500 91.611931,523.725586 
	C88.823395,523.725586 86.017860,523.725586 82.810249,523.725586 
	C82.768761,517.345215 86.454079,513.660583 91.537910,510.437805 
M112.251312,537.224548 
	C107.040604,537.956604 101.553986,537.902893 96.686310,539.612000 
	C90.019302,541.952881 89.049141,550.601562 94.355324,555.023865 
	C98.547104,558.517395 106.501404,558.125061 111.971771,554.154907 
	C116.064796,551.184387 118.540482,542.961548 116.393784,538.565796 
	C116.009705,537.779297 114.269905,537.654968 112.251312,537.224548 
z"/>
<path fill="#F8F8F8" opacity="1.000000" stroke="none" 
	d="
M235.276413,523.107300 
	C233.791748,517.084045 229.723206,515.104858 224.428345,514.950439 
	C218.005600,514.763184 213.034607,516.968994 211.076767,523.714111 
	C208.097626,523.714111 205.300644,523.714111 202.172241,523.714111 
	C201.648178,517.906433 205.031418,514.253784 209.144287,511.502808 
	C216.970596,506.267975 225.582336,505.462402 234.404678,508.729919 
	C240.714584,511.066895 244.540741,515.750061 245.136093,522.487427 
	C245.633087,528.111694 245.505432,533.790527 245.672394,539.444702 
	C245.920670,547.851807 246.184814,556.258423 246.447388,564.833862 
	C244.098511,564.833862 240.963287,564.833862 237.407639,564.833862 
	C236.902405,563.301392 236.352615,561.633789 235.672501,559.570923 
	C228.949173,565.280945 221.475128,567.569702 212.937454,565.057373 
	C206.084183,563.040649 201.519745,557.905579 200.775146,551.393494 
	C199.883118,543.591919 202.650406,536.954285 209.739944,534.157104 
	C215.468094,531.897034 221.919510,531.395630 228.093567,530.377686 
	C230.486435,529.983154 232.998795,530.313293 236.011688,530.313293 
	C235.759827,527.679871 235.560425,525.595032 235.276413,523.107300 
M216.840439,539.013977 
	C210.885818,542.201599 209.385620,545.053711 210.828583,550.443298 
	C212.095169,555.174072 216.197327,557.993835 222.001953,557.329773 
	C231.974319,556.188782 238.444687,551.525879 235.074402,536.724976 
	C229.325043,537.403931 223.463028,538.096191 216.840439,539.013977 
z"/>
<path fill="#F8F8F8" opacity="1.000000" stroke="none" 
	d="
M578.679993,353.875000 
	C568.516907,351.610748 563.233276,353.914398 560.426941,361.673157 
	C557.532959,361.673157 554.568298,361.673157 551.248596,361.673157 
	C551.119629,355.856842 554.406982,352.055542 558.763916,349.233765 
	C566.347412,344.322296 574.670654,343.630005 583.146912,346.470062 
	C590.716125,349.006226 594.730408,355.272339 594.889465,364.346130 
	C595.017822,371.666870 594.769165,378.995636 594.969055,386.313202 
	C595.117554,391.750916 595.716614,397.176331 596.128601,402.793091 
	C593.424622,402.793091 590.152588,402.793091 586.542664,402.793091 
	C586.118652,401.265656 585.691528,399.727173 585.260925,398.175964 
	C581.437073,399.974030 577.949280,402.282623 574.120361,403.273895 
	C566.395935,405.273773 559.180298,403.794342 553.635864,397.600006 
	C549.056763,392.484192 548.721375,386.359924 551.138794,380.303070 
	C554.127686,372.814331 560.767456,370.037964 568.140625,369.068359 
	C573.542053,368.358032 579.035034,368.343842 584.818726,367.999664 
	C585.353882,362.284576 585.001465,357.069458 578.679993,353.875000 
M584.972168,386.711609 
	C584.972168,382.970276 584.972168,379.228943 584.972168,374.508301 
	C578.214844,375.399506 572.102112,375.765717 566.217346,377.121338 
	C561.525208,378.202209 559.190002,381.797974 559.786804,386.899017 
	C560.337402,391.604462 563.133240,394.472046 568.185669,395.138916 
	C575.278381,396.075104 580.780518,393.436554 584.972168,386.711609 
z"/>
<path fill="#F9F9F9" opacity="1.000000" stroke="none" 
	d="
M203.138977,389.514221 
	C202.942429,377.501526 209.165848,370.525024 221.383774,369.053802 
	C226.789185,368.402924 232.265701,368.342377 237.684692,368.015320 
	C238.942795,359.817139 236.465729,354.871399 230.388657,353.306946 
	C222.730911,351.335541 216.445053,354.452393 213.534622,361.701782 
	C210.580002,361.701782 207.607605,361.701782 204.628754,361.701782 
	C205.103394,353.735565 210.356644,348.331024 219.933624,345.806427 
	C236.645798,341.400879 248.037384,350.004456 248.057007,367.051056 
	C248.063705,372.874603 247.905090,378.703339 248.101379,384.520264 
	C248.301651,390.454712 248.845322,396.377594 249.247192,402.434204 
	C241.989990,404.280212 239.952240,403.550568 238.217194,398.089569 
	C220.572357,407.934113 207.673996,404.932098 203.138977,389.514221 
M227.008163,395.065979 
	C237.597504,391.970184 240.291092,386.963409 237.271896,374.607605 
	C231.351898,375.402802 225.154587,375.609528 219.329422,377.188904 
	C213.168411,378.859253 210.972244,385.212463 214.006332,390.404053 
	C216.756760,395.110229 221.221222,395.814606 227.008163,395.065979 
z"/>
<path fill="#F9F9F9" opacity="1.000000" stroke="none" 
	d="
M969.120605,355.848022 
	C959.814148,350.257233 951.087097,352.749847 947.558838,361.706055 
	C944.608704,361.706055 941.636108,361.706055 938.656677,361.706055 
	C939.054443,353.782959 944.320984,348.347626 953.915710,345.810822 
	C970.628418,341.391998 982.039368,349.998322 982.057190,367.039551 
	C982.063293,372.864197 981.904419,378.694061 982.100586,384.512085 
	C982.300720,390.447906 982.844543,396.372192 983.246521,402.431061 
	C976.006226,404.284180 973.952759,403.549194 972.097534,397.708588 
	C965.685425,402.926331 958.624451,405.461914 950.401978,403.270844 
	C942.584412,401.187683 937.558472,395.652710 937.058411,388.435120 
	C936.518005,380.633423 940.329102,373.799713 947.919006,371.204956 
	C953.013062,369.463409 958.605469,369.104675 964.008423,368.375153 
	C966.450012,368.045471 968.973083,368.319244 971.711853,368.319244 
	C972.724976,363.793915 972.382019,359.731995 969.120605,355.848022 
M953.694092,376.901459 
	C947.713928,379.823059 945.793457,383.279633 947.208496,388.574249 
	C948.390320,392.996124 952.967346,396.038116 958.555969,395.319946 
	C969.632812,393.896637 974.482239,388.981903 971.422241,374.762695 
	C965.838135,375.388031 960.150940,376.024902 953.694092,376.901459 
z"/>
<path fill="#F9F9F9" opacity="1.000000" stroke="none" 
	d="
M459.345184,361.564819 
	C465.690277,347.986206 476.657471,342.387878 489.296539,345.911530 
	C495.485107,347.636841 500.295807,351.335175 502.297211,357.265045 
	C504.369751,363.405609 505.155609,369.980469 506.651093,377.060547 
	C492.640076,377.060547 480.062286,377.060547 467.050079,377.060547 
	C467.232117,384.621277 469.593079,390.640442 476.056122,393.994904 
	C484.862885,398.565796 492.393585,395.530396 498.994904,388.518921 
	C500.939117,390.041931 502.712830,391.431396 504.451965,392.793732 
	C498.835815,401.546387 488.789154,405.613342 478.253265,403.667725 
	C467.957611,401.766479 459.605377,394.455780 458.294617,384.042999 
	C457.385101,376.817596 458.797119,369.299957 459.345184,361.564819 
M476.517456,369.154449 
	C482.910156,369.154449 489.302887,369.154449 495.747925,369.154449 
	C494.554871,357.555206 489.552856,352.342926 480.865234,353.019653 
	C473.339905,353.605835 467.627045,360.703430 468.110107,369.154694 
	C470.570282,369.154694 473.048065,369.154694 476.517456,369.154449 
z"/>
<path fill="#F9F9F9" opacity="1.000000" stroke="none" 
	d="
M471.484558,539.201355 
	C470.453644,540.542480 469.181335,542.014465 469.408844,543.198242 
	C470.668640,549.753784 473.884186,554.982422 480.658356,557.141418 
	C487.251617,559.242737 493.107544,557.710144 498.210297,553.166931 
	C499.056793,552.413208 499.650574,551.375549 500.556030,550.220581 
	C502.849670,551.980164 504.637207,553.351440 506.389038,554.695374 
	C497.148071,570.186096 472.401154,569.644958 463.142853,554.089050 
	C456.676300,543.223877 457.919983,525.084778 466.128357,515.508240 
	C472.366150,508.230713 480.440033,505.445099 489.889557,507.534485 
	C498.969025,509.542053 504.242981,515.557068 506.150879,524.415649 
	C507.148499,529.047607 507.389404,533.842529 508.050507,539.199219 
	C495.447815,539.199219 483.691681,539.199219 471.484558,539.201355 
M494.987030,520.706177 
	C490.449615,515.241455 485.517181,513.650330 479.631744,515.752747 
	C473.557343,517.922668 469.835419,523.768738 470.014435,530.801270 
	C479.243164,530.801270 488.466278,530.801270 498.357910,530.801270 
	C497.256866,527.313782 496.317657,524.338989 494.987030,520.706177 
z"/>
<path fill="#F9F9F9" opacity="1.000000" stroke="none" 
	d="
M166.110901,366.903717 
	C166.335129,370.438660 166.524612,373.541901 166.741608,377.095886 
	C153.597229,377.095886 141.016663,377.095886 128.023376,377.095886 
	C128.249390,384.637238 130.605789,390.673767 137.094711,394.014374 
	C145.900513,398.547821 153.433868,395.541901 159.993530,388.505676 
	C161.961258,390.056244 163.730377,391.450317 165.651550,392.964203 
	C159.428772,402.193848 150.730835,404.849823 140.727280,403.769196 
	C130.573593,402.672424 123.545097,396.985077 120.025497,387.407654 
	C115.399818,374.820404 118.764053,358.933533 127.380150,351.298065 
	C141.491516,338.792664 160.918839,344.798889 165.391342,363.056152 
	C165.667389,364.183044 165.850052,365.332855 166.110901,366.903717 
M129.571609,363.613190 
	C129.190277,365.317230 128.808929,367.021271 128.401520,368.841736 
	C138.203430,368.841736 147.438965,368.841736 156.697128,368.841736 
	C155.805771,359.373810 152.275558,354.340332 145.874771,353.138947 
	C138.942932,351.837830 133.527847,355.117096 129.571609,363.613190 
z"/>
<path fill="#F9F9F9" opacity="1.000000" stroke="none" 
	d="
M419.420959,357.723175 
	C420.749817,364.175385 421.897186,370.288239 423.177704,377.110596 
	C409.367065,377.110596 396.782806,377.110596 384.236969,377.110596 
	C383.803864,384.969635 387.306519,391.742432 393.431000,394.405945 
	C402.065186,398.160919 409.312347,395.489105 415.650787,388.505737 
	C417.533386,389.929504 419.334747,391.291809 421.068359,392.602875 
	C416.549561,404.518036 392.626984,409.551910 380.629730,395.706665 
	C370.180847,383.648315 371.784698,361.213287 383.804504,350.727203 
	C395.379852,340.628815 411.956360,343.742798 419.420959,357.723175 
M386.943665,369.156494 
	C395.365906,369.156494 403.788177,369.156494 412.215271,369.156494 
	C411.906189,359.137482 407.599518,353.565125 400.180664,353.016602 
	C392.351074,352.437714 385.804871,358.042419 384.549591,366.604034 
	C384.438293,367.363251 385.520905,368.297516 386.943665,369.156494 
z"/>
<path fill="#F9F9F9" opacity="1.000000" stroke="none" 
	d="
M643.017334,371.250916 
	C643.902893,361.303619 647.858765,353.444336 655.968628,348.260071 
	C670.858032,338.741943 688.912659,348.432068 690.911621,366.933289 
	C691.261719,370.173889 690.961243,373.484833 690.961243,377.121460 
	C678.347839,377.121460 665.914429,377.121460 653.541626,377.121460 
	C652.465576,384.111053 655.757202,390.742767 661.704224,394.044495 
	C668.765015,397.964600 676.025818,396.320068 684.875427,388.638275 
	C686.628235,389.980652 688.431763,391.361816 690.201233,392.716949 
	C684.404480,401.941193 673.703979,405.937103 662.640198,403.273834 
	C651.544128,400.602814 644.198364,391.973267 643.153687,380.198181 
	C642.904297,377.386932 643.043884,374.541199 643.017334,371.250916 
M680.780823,363.350708 
	C677.708008,355.343903 673.051270,352.123322 665.899719,353.059021 
	C659.014465,353.959900 654.239563,359.973511 653.394226,368.903656 
	C662.661499,368.903656 671.916748,368.903656 681.397583,368.903656 
	C681.233887,367.153870 681.095703,365.677002 680.780823,363.350708 
z"/>
<path fill="#F8F8F8" opacity="1.000000" stroke="none" 
	d="
M550.171021,544.973267 
	C545.180969,542.829834 540.438232,540.992188 535.706116,539.127441 
	C532.016113,537.673340 528.059021,536.647156 524.715881,534.615723 
	C517.983032,530.524536 516.566162,521.984253 521.045898,515.427551 
	C528.889343,503.947540 550.866821,503.927887 558.456543,515.564819 
	C560.072754,518.042908 560.626526,521.213989 561.864380,524.597778 
	C558.003540,524.597778 555.205933,524.597778 552.366760,524.597778 
	C548.633362,515.918457 543.844299,514.213257 536.055237,515.355042 
	C531.994995,515.950256 528.769958,518.222412 528.415771,522.700562 
	C528.064331,527.143066 531.114502,529.139343 534.917358,530.274353 
	C540.326111,531.888672 545.848572,533.207947 551.108582,535.213928 
	C558.567566,538.058350 562.225159,543.218384 561.842346,549.788025 
	C561.415894,557.105042 557.216980,561.621033 550.564941,564.160339 
	C539.929199,568.220398 526.846619,565.770752 520.709167,558.038391 
	C518.575989,555.350830 517.553406,551.781738 515.608032,547.755249 
	C519.877075,547.755249 522.758728,547.755249 525.710632,547.755249 
	C529.827148,556.779175 536.824036,560.127319 545.550476,557.146118 
	C551.890625,554.980103 553.344971,551.434631 550.171021,544.973267 
z"/>
<path fill="#F8F8F8" opacity="1.000000" stroke="none" 
	d="
M62.104923,562.222168 
	C45.333912,571.201172 28.417870,563.582458 24.862841,545.274292 
	C22.385235,532.514771 23.320835,520.106018 34.753368,511.365692 
	C42.075756,505.767639 50.540356,505.529907 58.915596,508.842560 
	C66.909317,512.004333 71.009811,518.280212 71.867546,526.765259 
	C64.992119,528.711792 64.090385,528.294128 61.383606,522.617371 
	C59.210392,518.059692 55.554127,515.424500 50.478779,515.039795 
	C44.935783,514.619690 40.326500,516.433167 37.157063,521.189575 
	C32.444859,528.261292 32.436810,544.877197 37.164906,551.881226 
	C40.358170,556.611511 44.972973,558.517334 50.522003,557.873291 
	C56.886402,557.134705 61.357803,553.898865 62.831181,547.199341 
	C65.776299,547.199341 68.553902,547.199341 71.714653,547.199341 
	C71.184624,553.857117 67.733086,558.502502 62.104923,562.222168 
z"/>
<path fill="#F8F8F8" opacity="1.000000" stroke="none" 
	d="
M293.753754,345.986023 
	C302.982056,349.249084 307.886383,355.470215 308.912628,364.805420 
	C301.820801,366.666107 301.127350,366.328339 298.361755,360.574005 
	C296.174408,356.022858 292.509308,353.409149 287.434448,353.035950 
	C281.887085,352.628052 277.294312,354.463440 274.137634,359.224792 
	C269.436096,366.316345 269.443756,382.923187 274.181030,389.908203 
	C277.382782,394.629181 281.989044,396.426788 287.550751,395.895630 
	C293.640259,395.314056 297.263031,392.213806 300.097107,385.191589 
	C302.790375,385.191589 305.568939,385.191589 308.350830,385.191589 
	C307.915283,397.419189 294.372559,406.412231 280.771606,403.539490 
	C272.511383,401.794800 266.584900,397.076172 263.529816,389.225037 
	C259.557556,379.016907 259.658295,368.607117 264.042267,358.619873 
	C268.942413,347.456696 280.612976,342.670197 293.753754,345.986023 
z"/>
<path fill="#F9F9F9" opacity="1.000000" stroke="none" 
	d="
M364.437073,365.366821 
	C361.565735,365.561279 359.080505,365.561279 356.429291,365.561279 
	C355.267059,359.645935 352.481018,355.182526 346.535706,353.445679 
	C339.087341,351.269745 331.671906,355.058685 328.977112,362.684174 
	C326.292633,370.280518 326.269104,378.054535 328.731110,385.713287 
	C330.907593,392.483856 335.869110,396.053040 342.413605,396.006195 
	C349.333862,395.956665 354.006470,392.388977 356.357544,385.200531 
	C359.062134,385.200531 361.840576,385.200531 364.621948,385.206360 
	C365.040649,391.809814 360.293915,398.519073 352.883972,401.807373 
	C338.309357,408.275146 322.631866,400.866760 318.793030,385.380646 
	C316.105896,374.540527 316.400452,363.810669 323.190491,354.319031 
	C329.036499,346.146973 337.576599,343.774628 347.063904,345.263733 
	C355.550110,346.595703 361.737732,351.333466 364.354309,359.854675 
	C364.865173,361.518372 364.684753,363.394348 364.437073,365.366821 
z"/>
<path fill="#F7F7F7" opacity="1.000000" stroke="none" 
	d="
M906.905151,358.112335 
	C906.807495,356.350006 906.709961,355.075073 906.582825,353.412964 
	C903.186584,353.412964 900.079895,353.412964 896.701660,353.412964 
	C896.701660,350.914551 896.701660,348.821045 896.701660,346.205505 
	C899.831055,346.205505 903.056091,346.205505 906.793213,346.205505 
	C906.793213,341.321442 906.793213,336.923706 906.793213,332.296173 
	C910.221436,332.296173 913.144226,332.296173 916.622009,332.296173 
	C916.622009,336.729706 916.622009,341.124969 916.622009,345.970703 
	C920.408997,345.970703 923.664856,345.970703 927.051270,345.970703 
	C927.051270,348.548737 927.051270,350.663666 927.051270,353.340607 
	C923.716797,353.340607 920.498352,353.340607 916.922058,353.340607 
	C916.922058,366.156158 916.717346,378.423035 917.156555,390.666748 
	C917.218079,392.380951 920.235718,394.338989 922.274902,395.498596 
	C923.462952,396.174194 925.425842,395.487030 927.014404,395.414154 
	C928.387573,403.246155 927.767883,404.017395 920.282898,404.014008 
	C912.033203,404.010223 907.200134,399.321442 907.012939,390.545197 
	C906.785889,379.900787 906.924744,369.248566 906.905151,358.112335 
z"/>
<path fill="#FDFDFD" opacity="1.000000" stroke="none" 
	d="
M403.680908,536.000183 
	C403.680939,529.036316 403.680939,522.572205 403.680939,515.534668 
	C400.004303,515.534668 396.763336,515.534668 393.333618,515.534668 
	C393.333618,512.843262 393.333618,510.731567 393.333618,508.132660 
	C396.586670,508.132660 399.832703,508.132660 403.633636,508.132660 
	C403.633636,503.271912 403.633636,498.874054 403.633636,494.280487 
	C406.960480,494.280487 409.733398,494.280487 413.100220,494.280487 
	C413.100220,498.625549 413.100220,503.003571 413.100220,507.777771 
	C416.913177,507.777771 420.167358,507.777771 423.709229,507.777771 
	C423.709229,510.420624 423.709229,512.665833 423.709229,515.412842 
	C420.504730,515.412842 417.251038,515.412842 413.297760,515.412842 
	C413.297760,521.978699 413.297546,528.068848 413.297852,534.158997 
	C413.298065,538.653381 413.283875,543.147827 413.302795,547.642151 
	C413.341003,556.706299 414.831635,558.101868 423.979126,557.461609 
	C423.979126,559.764526 423.979126,562.054626 423.979126,564.373901 
	C413.367859,569.273315 404.404480,564.073364 403.828430,552.475525 
	C403.564484,547.161072 403.717163,541.825806 403.680908,536.000183 
z"/>
<path fill="#FDFDFD" opacity="1.000000" stroke="none" 
	d="
M623.299316,378.946411 
	C623.298828,381.601257 623.285095,383.765533 623.299988,385.929596 
	C623.360107,394.675140 625.110168,396.276642 633.902100,395.340912 
	C633.902100,397.772949 633.902100,400.177704 633.902100,402.578430 
	C622.270935,406.939972 614.102173,401.850525 613.807495,389.687744 
	C613.521790,377.897766 613.745544,366.095428 613.745544,353.678101 
	C610.137207,353.678101 606.918640,353.678101 603.423340,353.678101 
	C603.423340,350.966125 603.423340,348.869720 603.423340,346.263397 
	C606.449158,346.263397 609.682739,346.263397 613.473877,346.263397 
	C613.473877,341.389496 613.473877,337.001099 613.473877,332.341919 
	C616.931519,332.341919 619.835815,332.341919 623.159668,332.341919 
	C623.159668,336.701660 623.159668,340.960114 623.159668,345.799835 
	C626.905945,345.799835 630.288452,345.799835 633.822876,345.799835 
	C633.822876,348.498840 633.822876,350.611389 633.822876,353.408386 
	C630.471985,353.408386 627.113037,353.408386 623.299194,353.408386 
	C623.299194,362.204681 623.299194,370.330200 623.299316,378.946411 
z"/>
<path fill="#F5F4F4" opacity="1.000000" stroke="none" 
	d="
M434.413025,360.999725 
	C434.412964,347.875427 434.412964,335.251160 434.412964,322.303406 
	C437.779266,322.303406 440.831879,322.303406 444.034302,322.303406 
	C444.034302,349.119904 444.034302,375.885742 444.034302,402.837189 
	C440.932739,402.837189 437.976624,402.837189 434.413055,402.837189 
	C434.413055,389.014252 434.413055,375.256989 434.413025,360.999725 
z"/>
<path fill="#FAFAFA" opacity="1.000000" stroke="none" 
	d="
M1008.008911,336.006592 
	C1008.008850,358.475189 1008.008850,380.445465 1008.008850,402.712708 
	C1004.722351,402.712708 1001.672546,402.712708 998.375671,402.712708 
	C998.375671,375.864777 998.375671,349.139465 998.375671,322.201660 
	C1001.547852,322.201660 1004.484741,322.201660 1008.008911,322.201660 
	C1008.008911,326.634247 1008.008911,331.071259 1008.008911,336.006592 
z"/>
<path fill="#F9F9F9" opacity="1.000000" stroke="none" 
	d="
M526.389221,348.106476 
	C526.539551,349.313416 526.668762,350.104645 526.670044,350.112488 
	C530.668701,348.408234 534.530212,346.322693 538.650024,345.127838 
	C542.934387,343.885315 545.324585,345.728912 544.472290,350.571655 
	C544.250000,351.834686 544.228699,353.133026 544.128296,354.265717 
	C541.171509,354.484161 538.510742,354.448212 535.942139,354.917206 
	C529.940857,356.012878 526.759094,359.937439 526.746338,365.991547 
	C526.720825,378.102570 526.738770,390.213684 526.738770,402.667847 
	C523.426514,402.667847 520.396667,402.667847 517.138062,402.667847 
	C517.138062,383.908203 517.138062,365.202362 517.138062,345.202911 
	C520.449768,346.095520 523.408936,346.893127 526.389221,348.106476 
z"/>
<path fill="#FFFFFF" opacity="1.000000" stroke="none" 
	d="
M348.816986,545.999512 
	C348.816986,525.193176 348.816986,504.886841 348.816986,484.291382 
	C351.969238,484.291382 354.884003,484.291382 358.136108,484.291382 
	C358.136108,510.999634 358.136108,537.722900 358.136108,564.723145 
	C355.315247,564.723145 352.387268,564.723145 348.816986,564.723145 
	C348.816986,558.674072 348.816986,552.586792 348.816986,545.999512 
z"/>
<path fill="#F8F8F8" opacity="1.000000" stroke="none" 
	d="
M732.568604,68.437828 
	C740.578308,64.860687 747.987488,66.439003 751.923706,72.281075 
	C756.101562,78.481750 755.477722,85.533577 750.235046,90.787605 
	C745.917969,95.114067 740.736267,95.889107 735.153809,93.995316 
	C729.681946,92.139061 726.191101,88.266998 725.621765,82.450760 
	C725.055481,76.665245 726.668579,71.627823 732.568604,68.437828 
z"/>
<path fill="#F8F8F8" opacity="1.000000" stroke="none" 
	d="
M892.318604,94.878143 
	C882.969360,93.771286 877.512268,85.101959 879.365234,77.284935 
	C881.211182,69.497147 889.538574,64.853447 897.514160,66.863731 
	C903.754883,68.436737 907.868591,73.342834 908.186462,79.591782 
	C908.544189,86.626656 905.144470,91.819138 898.554993,93.943810 
	C896.704102,94.540588 894.679138,94.597610 892.318604,94.878143 
z"/>
<path fill="#F5F4F4" opacity="1.000000" stroke="none" 
	d="
M322.412476,558.822510 
	C322.412384,541.731689 322.412384,525.118469 322.412384,508.226135 
	C325.711609,508.226135 328.630707,508.226135 331.870575,508.226135 
	C331.870575,527.023987 331.870575,545.874146 331.870575,564.848083 
	C328.827515,564.848083 325.872681,564.848083 322.412567,564.848083 
	C322.412567,562.885132 322.412567,561.092651 322.412476,558.822510 
z"/>
<path fill="#F9F9F9" opacity="1.000000" stroke="none" 
	d="
M384.835632,549.994263 
	C384.835663,555.129578 384.835663,559.765991 384.835663,564.704102 
	C381.597351,564.704102 378.667694,564.704102 375.356323,564.704102 
	C375.356323,546.076782 375.356323,527.223999 375.356323,508.162109 
	C378.328918,508.162109 381.264771,508.162109 384.835571,508.162109 
	C384.835571,521.967957 384.835571,535.731689 384.835632,549.994263 
z"/>
<path fill="#FAFAFA" opacity="1.000000" stroke="none" 
	d="
M801.008423,380.999939 
	C801.008362,388.476166 801.008362,395.452454 801.008362,402.718323 
	C797.711182,402.718323 794.661316,402.718323 791.370239,402.718323 
	C791.370239,383.973419 791.370239,365.367706 791.370239,346.359222 
	C794.332581,346.359222 797.378784,346.359222 801.008423,346.359222 
	C801.008423,357.623016 801.008423,369.061493 801.008423,380.999939 
z"/>
<path fill="#F9F9F9" opacity="1.000000" stroke="none" 
	d="
M887.460449,346.531982 
	C887.751770,365.374420 887.751770,383.849396 887.751770,402.667908 
	C884.537598,402.667908 881.494202,402.667908 878.211487,402.667908 
	C878.211487,383.904999 878.211487,365.161072 878.211487,346.164520 
	C881.286865,346.164520 884.227966,346.164520 887.460449,346.531982 
z"/>
<path fill="#FAFAFA" opacity="1.000000" stroke="none" 
	d="
M446.008453,543.999878 
	C446.000549,550.832153 445.995728,557.164429 445.975372,563.496704 
	C445.974365,563.807434 445.837952,564.117859 445.696106,564.718140 
	C442.710724,564.718140 439.661011,564.718140 436.370300,564.718140 
	C436.370300,545.972473 436.370300,527.366882 436.370300,508.358643 
	C439.333160,508.358643 442.379150,508.358643 446.008423,508.358643 
	C446.008423,519.956543 446.008423,531.728210 446.008453,543.999878 
z"/>
<path fill="#F5F4F4" opacity="1.000000" stroke="none" 
	d="
M377.760193,487.576904 
	C380.403168,488.282623 383.238464,488.587860 384.776001,490.161285 
	C385.753906,491.161987 385.568390,494.711487 384.521515,495.911224 
	C383.293182,497.318909 380.495117,498.077515 378.510559,497.867065 
	C377.033997,497.710480 374.593079,495.495544 374.661011,494.317230 
	C374.790558,492.070679 376.405029,489.909821 377.760193,487.576904 
z"/>
<path fill="#F5F4F4" opacity="1.000000" stroke="none" 
	d="
M888.006104,328.035828 
	C889.439575,331.677460 888.638367,334.853455 885.396606,335.672272 
	C883.234314,336.218445 879.625305,335.138763 878.277100,333.477478 
	C877.242554,332.202606 877.886841,328.051270 879.272156,326.651459 
	C881.913330,323.982635 885.304688,324.618530 888.006104,328.035828 
z"/>
<path fill="#F5F4F4" opacity="1.000000" stroke="none" 
	d="
M445.500977,496.631348 
	C440.232025,499.107574 436.558075,498.391510 436.012543,494.624084 
	C435.716400,492.578766 436.587433,489.346924 438.075195,488.340912 
	C439.628326,487.290771 443.023499,487.489075 444.775269,488.539368 
	C447.719604,490.304688 447.590027,493.450867 445.500977,496.631348 
z"/>
<path fill="#F5F4F4" opacity="1.000000" stroke="none" 
	d="
M793.004089,335.505524 
	C789.874573,332.730896 789.419800,329.378510 792.084412,327.153290 
	C793.721741,325.786041 797.562622,325.473022 799.438965,326.488434 
	C800.885559,327.271271 801.795837,331.149780 801.207153,333.137268 
	C800.086548,336.920990 796.511353,336.483948 793.004089,335.505524 
z"/>
<path fill="#F7F7F7" opacity="1.000000" stroke="none" 
	d="
M331.969238,489.270111 
	C331.817169,492.133270 332.222473,495.349518 330.804352,496.976257 
	C329.763672,498.170135 325.851898,498.091339 324.118134,497.063812 
	C322.718140,496.234100 321.894501,493.033600 322.167572,491.073181 
	C322.720215,487.105774 327.074249,486.297363 331.969238,489.270111 
z"/>
<path fill="#FFFEFE" opacity="1.000000" stroke="none" 
	d="
M234.333221,68.175674 
	C242.803391,68.164825 250.806824,68.310776 258.800079,68.089096 
	C261.935364,68.002136 263.979492,68.972183 266.011383,71.373581 
	C285.990479,94.986237 306.092163,118.495201 326.165680,142.027939 
	C327.011719,143.019791 327.922607,143.956284 329.619995,145.810913 
	C329.619995,119.425087 329.619995,94.093147 329.619995,68.465164 
	C340.312866,68.465164 350.379974,68.465164 360.725464,68.465164 
	C360.725464,111.215164 360.725464,153.806747 360.725464,197.135056 
	C350.877930,197.135056 340.963593,197.264648 331.060486,196.990021 
	C329.637512,196.950546 328.035370,195.161865 326.909698,193.846039 
	C310.477386,174.638000 294.117462,155.368073 277.727356,136.123901 
	C273.217987,130.829269 268.666260,125.570671 263.355927,119.389969 
	C263.355927,145.829224 263.355927,171.178406 263.355927,196.845154 
	C252.735840,196.845154 242.667007,196.845154 232.252655,196.845154 
	C232.168045,195.400528 232.009781,193.953690 232.009293,192.506790 
	C231.995972,152.676575 231.976929,112.846321 232.077545,73.016365 
	C232.081619,71.404541 233.241211,69.795631 234.333221,68.175674 
z"/>
<path fill="#FEFCFC" opacity="1.000000" stroke="none" 
	d="
M520.870117,105.231552 
	C536.471375,141.318069 520.488708,179.826828 484.172180,193.210587 
	C477.624237,195.623703 470.281769,196.731918 463.272461,196.883438 
	C441.812439,197.347305 420.336029,197.052063 398.511353,197.052063 
	C398.511353,186.829819 398.511353,176.764481 398.511353,166.191727 
	C403.538483,166.191727 408.612915,166.191727 414.067688,166.191727 
	C414.067688,143.855850 414.067688,122.021225 414.067688,99.629951 
	C408.850983,99.629951 403.769836,99.629951 398.432251,99.629951 
	C398.432251,89.011345 398.432251,78.945419 398.432251,68.845711 
	C398.996826,68.600906 399.437469,68.242531 399.877777,68.242920 
	C421.353912,68.262108 442.846130,67.806244 464.301971,68.489082 
	C490.118622,69.310707 508.782440,82.109764 520.870117,105.231552 
M481.662170,105.687149 
	C470.870056,97.493492 458.437012,99.819160 446.208191,99.669426 
	C446.208191,122.027176 446.208191,143.879776 446.208191,165.820755 
	C452.545593,165.820755 458.547089,166.199219 464.485229,165.746567 
	C479.583618,164.595688 491.008148,155.030777 494.655792,140.983505 
	C498.038544,127.956573 492.837799,113.440697 481.662170,105.687149 
z"/>
<path fill="#FEFCFC" opacity="1.000000" stroke="none" 
	d="
M83.992661,197.172989 
	C77.859772,197.172958 72.225662,197.172958 66.792686,197.172958 
	C66.420906,196.561447 66.108170,196.287018 66.107620,196.011978 
	C66.062935,173.535553 65.204445,151.022003 66.197090,128.590439 
	C68.184944,83.669365 116.711311,55.045506 157.353500,74.465569 
	C181.860123,86.175575 194.122055,106.264000 194.751480,133.194641 
	C195.210419,152.831406 194.841614,172.487518 194.841827,192.134995 
	C194.841843,193.599472 194.841827,195.063950 194.841827,196.848450 
	C184.351715,196.848450 174.281342,196.848450 163.698303,196.848450 
	C163.698303,191.762131 163.698303,186.679825 163.698303,181.220123 
	C141.321640,181.220123 119.450035,181.220123 97.149918,181.220123 
	C97.149918,186.287552 97.149918,191.379288 97.149918,197.173019 
	C92.661720,197.173019 88.576576,197.173019 83.992661,197.172989 
M162.910782,126.156540 
	C162.333466,124.433624 161.798004,122.695343 161.172104,120.990265 
	C156.901306,109.355789 148.205002,102.516716 136.455582,100.250412 
	C123.989891,97.845955 113.230766,101.777740 104.855507,111.682777 
	C95.416389,122.846008 96.918755,136.050735 97.201218,149.154572 
	C119.364815,149.154572 141.118332,149.154572 162.993256,149.154572 
	C162.993256,141.582306 162.993256,134.313156 162.910782,126.156540 
z"/>
<path fill="#262525" opacity="1.000000" stroke="none" 
	d="
M627.379639,90.535690 
	C637.062744,90.626213 646.547058,89.919785 655.597229,91.579987 
	C674.916748,95.124008 687.323242,112.164696 687.066895,132.945221 
	C686.752930,158.383286 670.154175,174.862549 644.702332,174.985809 
	C638.746399,175.014664 632.790222,174.990082 626.525208,174.990082 
	C626.525208,156.735214 626.473022,138.957748 626.545410,121.180786 
	C626.586548,111.057198 626.831177,100.934448 627.379639,90.535690 
z"/>
<path fill="#272626" opacity="1.000000" stroke="none" 
	d="
M823.174561,175.662933 
	C813.472961,177.952652 804.995056,176.739410 798.139282,169.367401 
	C790.211121,160.842209 789.697571,145.948669 797.016113,136.808121 
	C804.412720,127.570053 817.931274,125.487526 828.522827,131.814865 
	C834.155823,135.179962 838.176331,139.167435 836.913696,146.548981 
	C836.387512,149.625458 836.566956,152.892380 836.872498,156.029160 
	C838.102905,168.661560 833.482666,171.126755 823.174561,175.662933 
z"/>
<path fill="#262525" opacity="1.000000" stroke="none" 
	d="
M1027.574951,129.247559 
	C1036.769287,126.956947 1044.677612,128.901688 1051.796265,134.393951 
	C1054.964600,136.838516 1056.899170,139.699951 1056.562134,144.078903 
	C1056.180054,149.041473 1056.034668,154.105484 1056.586182,159.035919 
	C1057.301025,165.427643 1054.493530,169.500107 1049.406982,172.538391 
	C1040.810181,177.673508 1031.794800,178.707336 1022.982910,173.648651 
	C1014.198120,168.605423 1010.804077,160.247116 1011.701782,150.410950 
	C1012.609924,140.460052 1017.320801,132.921692 1027.574951,129.247559 
z"/>
<path fill="#272626" opacity="1.000000" stroke="none" 
	d="
M823.994385,373.140625 
	C824.774841,368.961243 824.975159,364.997681 826.424561,361.560913 
	C830.162170,352.698517 841.395142,350.226562 848.441895,356.782532 
	C850.484741,358.683105 851.943848,362.015961 852.225342,364.836487 
	C852.801636,370.610870 852.401123,376.482941 852.398376,382.314789 
	C852.395203,389.100769 849.490723,393.283905 843.587463,395.014526 
	C836.708374,397.031281 829.981140,395.080414 827.314514,388.945648 
	C825.267456,384.236359 825.027039,378.741821 823.994385,373.140625 
z"/>
<path fill="#2A2929" opacity="1.000000" stroke="none" 
	d="
M157.819366,556.498901 
	C153.025360,553.815979 150.829346,550.297791 151.225525,544.925964 
	C151.627930,539.469604 151.312897,533.960388 151.314163,528.474365 
	C151.315643,521.951477 153.394806,518.552979 158.709518,516.380310 
	C164.343338,514.077209 170.458115,515.134644 174.454697,519.103149 
	C182.057526,526.652588 182.050659,546.718628 174.353363,554.188232 
	C169.600327,558.800659 164.024826,558.889893 157.819366,556.498901 
z"/>
<path fill="#282727" opacity="1.000000" stroke="none" 
	d="
M270.730591,540.923462 
	C270.730713,536.451538 270.725647,532.466858 270.732239,528.482117 
	C270.742920,521.997253 273.865692,517.678833 279.796417,515.932861 
	C286.489136,513.962585 292.970490,515.786133 295.879608,521.399963 
	C301.009857,531.300171 300.863129,541.611816 295.846802,551.492493 
	C292.962189,557.174255 286.452301,558.994385 279.798767,556.980347 
	C273.930298,555.203979 270.748718,550.790161 270.731415,544.399231 
	C270.728729,543.403076 270.730774,542.406860 270.730591,540.923462 
z"/>
<path fill="#272626" opacity="1.000000" stroke="none" 
	d="
M739.201660,361.534424 
	C744.105469,353.541199 751.471130,351.084778 758.844116,354.862976 
	C762.896301,356.939453 765.639893,359.874664 765.385498,365.011505 
	C765.097900,370.817963 765.322021,376.649628 765.318115,382.470337 
	C765.313660,389.051086 762.565979,393.126709 756.926819,394.930267 
	C750.589050,396.957275 744.388306,395.267548 740.863831,390.219940 
	C736.035767,383.305359 736.459961,375.463257 737.440674,367.632629 
	C737.684937,365.682404 738.497498,363.803314 739.201660,361.534424 
z"/>
<path fill="#2C2B2B" opacity="1.000000" stroke="none" 
	d="
M112.703705,537.224731 
	C114.269905,537.654968 116.009705,537.779297 116.393784,538.565796 
	C118.540482,542.961548 116.064796,551.184387 111.971771,554.154907 
	C106.501404,558.125061 98.547104,558.517395 94.355324,555.023865 
	C89.049141,550.601562 90.019302,541.952881 96.686310,539.612000 
	C101.553986,537.902893 107.040604,537.956604 112.703705,537.224731 
z"/>
<path fill="#2A2929" opacity="1.000000" stroke="none" 
	d="
M217.220734,538.901245 
	C223.463028,538.096191 229.325043,537.403931 235.074402,536.724976 
	C238.444687,551.525879 231.974319,556.188782 222.001953,557.329773 
	C216.197327,557.993835 212.095169,555.174072 210.828583,550.443298 
	C209.385620,545.053711 210.885818,542.201599 217.220734,538.901245 
z"/>
<path fill="#2A2929" opacity="1.000000" stroke="none" 
	d="
M584.858765,387.114380 
	C580.780518,393.436554 575.278381,396.075104 568.185669,395.138916 
	C563.133240,394.472046 560.337402,391.604462 559.786804,386.899017 
	C559.190002,381.797974 561.525208,378.202209 566.217346,377.121338 
	C572.102112,375.765717 578.214844,375.399506 584.972168,374.508301 
	C584.972168,379.228943 584.972168,382.970276 584.858765,387.114380 
z"/>
<path fill="#2A2929" opacity="1.000000" stroke="none" 
	d="
M226.578125,395.110565 
	C221.221222,395.814606 216.756760,395.110229 214.006332,390.404053 
	C210.972244,385.212463 213.168411,378.859253 219.329422,377.188904 
	C225.154587,375.609528 231.351898,375.402802 237.271896,374.607605 
	C240.291092,386.963409 237.597504,391.970184 226.578125,395.110565 
z"/>
<path fill="#2A2929" opacity="1.000000" stroke="none" 
	d="
M954.078857,376.781616 
	C960.150940,376.024902 965.838135,375.388031 971.422241,374.762695 
	C974.482239,388.981903 969.632812,393.896637 958.555969,395.319946 
	C952.967346,396.038116 948.390320,392.996124 947.208496,388.574249 
	C945.793457,383.279633 947.713928,379.823059 954.078857,376.781616 
z"/>
<path fill="#292827" opacity="1.000000" stroke="none" 
	d="
M476.021667,369.154572 
	C473.048065,369.154694 470.570282,369.154694 468.110107,369.154694 
	C467.627045,360.703430 473.339905,353.605835 480.865234,353.019653 
	C489.552856,352.342926 494.554871,357.555206 495.747925,369.154449 
	C489.302887,369.154449 482.910156,369.154449 476.021667,369.154572 
z"/>
<path fill="#292827" opacity="1.000000" stroke="none" 
	d="
M495.182739,521.035156 
	C496.317657,524.338989 497.256866,527.313782 498.357910,530.801270 
	C488.466278,530.801270 479.243164,530.801270 470.014435,530.801270 
	C469.835419,523.768738 473.557343,517.922668 479.631744,515.752747 
	C485.517181,513.650330 490.449615,515.241455 495.182739,521.035156 
z"/>
<path fill="#292827" opacity="1.000000" stroke="none" 
	d="
M129.717194,363.224335 
	C133.527847,355.117096 138.942932,351.837830 145.874771,353.138947 
	C152.275558,354.340332 155.805771,359.373810 156.697128,368.841736 
	C147.438965,368.841736 138.203430,368.841736 128.401520,368.841736 
	C128.808929,367.021271 129.190277,365.317230 129.717194,363.224335 
z"/>
<path fill="#292827" opacity="1.000000" stroke="none" 
	d="
M386.496338,369.153503 
	C385.520905,368.297516 384.438293,367.363251 384.549591,366.604034 
	C385.804871,358.042419 392.351074,352.437714 400.180664,353.016602 
	C407.599518,353.565125 411.906189,359.137482 412.215271,369.156494 
	C403.788177,369.156494 395.365906,369.156494 386.496338,369.153503 
z"/>
<path fill="#292827" opacity="1.000000" stroke="none" 
	d="
M680.869141,363.775452 
	C681.095703,365.677002 681.233887,367.153870 681.397583,368.903656 
	C671.916748,368.903656 662.661499,368.903656 653.394226,368.903656 
	C654.239563,359.973511 659.014465,353.959900 665.899719,353.059021 
	C673.051270,352.123322 677.708008,355.343903 680.869141,363.775452 
z"/>
<path fill="#C6363D" opacity="1.000000" stroke="none" 
	d="
M481.927002,105.941040 
	C492.837799,113.440697 498.038544,127.956573 494.655792,140.983505 
	C491.008148,155.030777 479.583618,164.595688 464.485229,165.746567 
	C458.547089,166.199219 452.545593,165.820755 446.208191,165.820755 
	C446.208191,143.879776 446.208191,122.027176 446.208191,99.669426 
	C458.437012,99.819160 470.870056,97.493492 481.927002,105.941040 
z"/>
<path fill="#C6363D" opacity="1.000000" stroke="none" 
	d="
M162.952026,126.600266 
	C162.993256,134.313156 162.993256,141.582306 162.993256,149.154572 
	C141.118332,149.154572 119.364815,149.154572 97.201218,149.154572 
	C96.918755,136.050735 95.416389,122.846008 104.855507,111.682777 
	C113.230766,101.777740 123.989891,97.845955 136.455582,100.250412 
	C148.205002,102.516716 156.901306,109.355789 161.172104,120.990265 
	C161.798004,122.695343 162.333466,124.433624 162.952026,126.600266 
z"/>
</svg>