<svg version="1.1" id="Layer_1" xmlns="http://www.w3.org/2000/svg" xmlns:xlink="http://www.w3.org/1999/xlink" x="0px" y="0px"
	 width="100%" viewBox="0 0 1136 240" enable-background="new 0 0 1136 240" xml:space="preserve">
<path fill="#C6373E" opacity="1.000000" stroke="none" 
	d="
M784.000000,241.000000 
	C522.666687,241.000000 261.833435,241.000000 1.000105,241.000000 
	C1.000070,161.000061 1.000070,81.000122 1.000035,1.000137 
	C379.666534,1.000092 758.333069,1.000092 1136.999756,1.000046 
	C1136.999756,80.999855 1136.999756,160.999710 1136.999878,240.999786 
	C1019.500000,241.000000 902.000000,241.000000 784.000000,241.000000 
M218.500000,14.001485 
	C150.722458,14.001485 82.944931,14.001485 15.114834,14.001485 
	C15.114834,82.032967 15.114834,149.554550 15.114834,217.045288 
	C193.597824,217.045288 371.666138,217.045288 549.980347,217.045288 
	C549.980347,149.345016 549.980347,81.940033 549.980347,14.616799 
	C549.517151,14.377623 549.232239,14.101581 548.947144,14.101461 
	C439.131439,14.055689 329.315704,14.028754 218.500000,14.001485 
M663.089111,173.517136 
	C682.829834,163.324600 693.827576,147.010925 697.194580,125.208023 
	C702.447083,91.195267 680.343140,53.990505 638.663513,51.922318 
	C622.212891,51.106014 605.706604,51.409637 589.225281,51.233562 
	C588.794922,51.228958 588.360779,51.575813 587.728271,51.843452 
	C587.728271,94.471512 587.728271,137.060944 587.728271,180.008896 
	C602.752686,180.008896 617.534729,180.135315 632.313354,179.965820 
	C642.696350,179.846741 652.847412,178.233002 663.089111,173.517136 
M834.898621,210.401886 
	C844.148560,201.588806 846.705261,190.198624 846.783997,178.115295 
	C846.963196,150.619080 846.844421,123.120895 846.829529,95.623520 
	C846.828735,94.169899 846.668518,92.716362 846.576050,91.153229 
	C838.850769,91.153229 831.451416,91.153229 824.078491,91.153229 
	C823.847595,93.349770 823.651489,95.214874 823.427063,97.349258 
	C799.621338,82.172943 778.218445,90.063828 766.535095,102.692505 
	C750.862366,119.633430 749.184753,146.455704 764.041687,165.534744 
	C770.992981,174.461517 780.377319,179.283325 791.450256,181.274048 
	C802.791260,183.312973 813.019897,180.643570 822.607971,174.216339 
	C823.804382,195.253387 812.729065,205.305893 792.630981,202.180878 
	C784.039734,200.845062 777.383606,196.217285 771.178345,190.039703 
	C766.204407,195.244751 761.417480,200.254150 756.679749,205.212021 
	C771.518127,224.719879 811.599731,232.668686 834.898621,210.401886 
M1066.523438,160.499603 
	C1066.523438,137.400543 1066.523438,114.301483 1066.523438,91.048973 
	C1058.584717,91.048973 1051.313599,91.048973 1043.866089,91.048973 
	C1043.584229,93.128632 1043.329468,95.008820 1043.056641,97.022125 
	C1017.271057,80.986465 994.020142,92.094719 983.809753,105.441292 
	C969.895569,123.629379 970.141663,148.587952 984.371765,166.328720 
	C997.765869,183.027206 1017.935181,185.707718 1043.054688,173.965225 
	C1043.328369,175.939499 1043.590454,177.830658 1043.863647,179.801453 
	C1051.423950,179.801453 1058.789307,179.801453 1066.523315,179.801453 
	C1066.523315,173.452652 1066.523315,167.475906 1066.523438,160.499603 
M912.827820,81.503105 
	C912.883911,103.815178 912.616089,126.135849 913.208496,148.433655 
	C913.370239,154.522842 915.060791,161.093521 917.873779,166.492889 
	C926.520935,183.090179 952.329712,184.470200 965.128906,179.506775 
	C963.924622,173.100922 962.709229,166.636108 961.487366,160.136978 
	C957.649475,160.389282 954.336670,160.868469 951.040649,160.772308 
	C942.800476,160.531921 937.473633,157.129349 937.215393,150.675797 
	C936.692383,137.605133 937.059326,124.498863 937.059326,110.840569 
	C945.446045,110.840569 953.499451,110.840569 961.450684,110.840569 
	C961.450684,103.872047 961.450684,97.481720 961.450684,90.667824 
	C953.133301,90.667824 945.198547,90.667824 936.799561,90.667824 
	C936.799561,82.321060 936.799561,74.403374 936.799561,66.298355 
	C928.601196,66.298355 920.884460,66.298355 912.827820,66.298355 
	C912.827820,71.232933 912.827820,75.868683 912.827820,81.503105 
M1087.367676,172.382721 
	C1087.367676,174.833084 1087.367676,177.283432 1087.367676,179.836517 
	C1095.597778,179.836517 1103.194092,179.836517 1110.933960,179.836517 
	C1110.933960,136.914597 1110.933960,94.243576 1110.933960,51.398224 
	C1102.970337,51.398224 1095.384888,51.398224 1087.367676,51.398224 
	C1087.367676,91.552406 1087.367676,131.482590 1087.367676,172.382721 
M875.544189,90.829170 
	C873.106934,90.829170 870.669678,90.829170 868.227661,90.829170 
	C868.227661,120.941467 868.227661,150.446320 868.227661,179.861313 
	C876.214722,179.861313 883.799622,179.861313 891.589600,179.861313 
	C891.589600,150.169174 891.589600,120.786736 891.589600,90.829170 
	C886.413391,90.829170 881.471313,90.829170 875.544189,90.829170 
M714.002258,164.496567 
	C714.002258,169.605286 714.002258,174.714020 714.002258,179.795898 
	C722.315674,179.795898 730.030762,179.795898 737.700928,179.795898 
	C737.700928,150.013062 737.700928,120.599174 737.700928,91.204376 
	C729.683899,91.204376 721.968811,91.204376 714.002258,91.204376 
	C714.002258,115.547211 714.002258,139.522659 714.002258,164.496567 
M731.093079,50.103664 
	C729.785278,49.851254 728.487671,49.474075 727.168030,49.367222 
	C720.045532,48.790470 713.137329,53.708614 711.887573,60.178005 
	C710.304871,68.371704 714.096069,74.813988 721.897644,77.188065 
	C729.282776,79.435417 736.650940,76.010765 739.517578,68.998436 
	C742.511780,61.674099 739.629944,54.704620 731.093079,50.103664 
M883.603027,77.370026 
	C893.407715,73.600121 897.268188,63.885212 892.110291,55.961494 
	C888.142578,49.866169 879.992371,47.660740 873.184692,50.840294 
	C867.056152,53.702660 863.667664,61.148754 865.599243,67.509346 
	C867.816772,74.812080 874.308289,78.595329 883.603027,77.370026 
z"/>
<path fill="#FFFFFF" opacity="1.000000" stroke="none" 
	d="
M219.000000,14.001485 
	C329.315704,14.028754 439.131439,14.055689 548.947144,14.101461 
	C549.232239,14.101581 549.517151,14.377623 549.980347,14.616799 
	C549.980347,81.940033 549.980347,149.345016 549.980347,217.045288 
	C371.666138,217.045288 193.597824,217.045288 15.114834,217.045288 
	C15.114834,149.554550 15.114834,82.032967 15.114834,14.001485 
	C82.944931,14.001485 150.722458,14.001485 219.000000,14.001485 
M281.894440,89.593163 
	C271.664581,77.565216 261.449585,65.524559 251.176529,53.533649 
	C250.362381,52.583324 249.156601,51.330517 248.114258,51.312817 
	C238.186523,51.144249 228.254761,51.212219 218.352173,51.212219 
	C218.352173,94.535057 218.352173,137.243484 218.352173,179.792084 
	C228.779129,179.792084 238.849075,179.792084 249.481674,179.792084 
	C249.481674,154.122162 249.481674,128.825638 249.481674,102.459007 
	C258.653717,113.221222 267.050568,123.072083 275.445465,132.924606 
	C287.949829,147.600174 300.422180,162.303375 313.006165,176.910355 
	C314.202942,178.299515 316.068665,179.965866 317.668762,180.014099 
	C327.275848,180.303802 336.896057,180.157852 346.710663,180.157852 
	C346.710663,137.006516 346.710663,94.308968 346.710663,51.478851 
	C336.355042,51.478851 326.292786,51.478851 315.602539,51.478851 
	C315.602539,77.104500 315.602539,102.423279 315.602539,128.995728 
	C303.936951,115.336021 293.162292,102.719551 281.894440,89.593163 
M454.026001,51.491989 
	C430.926483,51.491989 407.826965,51.491989 384.444305,51.491989 
	C384.444305,61.829567 384.444305,71.898102 384.444305,82.708633 
	C389.822510,82.708633 395.035248,82.708633 400.119598,82.708633 
	C400.119598,105.183372 400.119598,126.915680 400.119598,149.142685 
	C394.687653,149.142685 389.603638,149.142685 384.501038,149.142685 
	C384.501038,159.713226 384.501038,169.780914 384.501038,180.052917 
	C406.318512,180.052917 427.796509,180.196121 449.270111,179.953003 
	C454.691162,179.891632 460.204742,179.045364 465.494232,177.793030 
	C495.875336,170.600037 517.589294,137.384186 512.266602,106.575699 
	C506.983490,75.996460 486.688477,56.508587 454.026001,51.491989 
M86.376930,58.839500 
	C65.411736,70.219795 53.507534,88.036942 52.278919,111.587219 
	C51.109081,134.010757 52.065517,156.545319 52.111221,179.031021 
	C52.111778,179.304459 52.432213,179.577225 52.573700,179.803009 
	C62.661606,179.803009 72.709274,179.803009 83.178207,179.803009 
	C83.178207,174.346191 83.178207,169.256104 83.178207,164.247070 
	C105.482475,164.247070 127.353004,164.247070 149.756393,164.247070 
	C149.756393,169.724701 149.756393,174.796173 149.756393,179.802460 
	C160.361572,179.802460 170.423996,179.802460 180.670151,179.802460 
	C180.739761,178.636276 180.830032,177.826035 180.830353,177.015778 
	C180.838760,156.194092 180.891159,135.372147 180.788055,114.550980 
	C180.770020,110.910233 180.403381,107.208557 179.670090,103.643555 
	C170.909760,61.053974 126.016212,39.197624 86.376930,58.839500 
z"/>
<path fill="#FEFAFB" opacity="1.000000" stroke="none" 
	d="
M662.727295,173.633575 
	C652.847412,178.233002 642.696350,179.846741 632.313354,179.965820 
	C617.534729,180.135315 602.752686,180.008896 587.728271,180.008896 
	C587.728271,137.060944 587.728271,94.471512 587.728271,51.843452 
	C588.360779,51.575813 588.794922,51.228958 589.225281,51.233562 
	C605.706604,51.409637 622.212891,51.106014 638.663513,51.922318 
	C680.343140,53.990505 702.447083,91.195267 697.194580,125.208023 
	C693.827576,147.010925 682.829834,163.324600 662.727295,173.633575 
M636.515747,73.808990 
	C628.752563,73.808990 620.989380,73.808990 612.918945,73.808990 
	C612.918945,101.716026 612.918945,129.697067 612.918945,157.990036 
	C619.115051,157.990036 624.922302,158.016800 630.729248,157.985413 
	C656.196045,157.847717 672.878723,141.219818 673.073730,115.800034 
	C673.246704,93.247139 658.527100,75.935181 636.515747,73.808990 
z"/>
<path fill="#FEFCFC" opacity="1.000000" stroke="none" 
	d="
M834.647949,210.651611 
	C811.599731,232.668686 771.518127,224.719879 756.679749,205.212021 
	C761.417480,200.254150 766.204407,195.244751 771.178345,190.039703 
	C777.383606,196.217285 784.039734,200.845062 792.630981,202.180878 
	C812.729065,205.305893 823.804382,195.253387 822.607971,174.216339 
	C813.019897,180.643570 802.791260,183.312973 791.450256,181.274048 
	C780.377319,179.283325 770.992981,174.461517 764.041687,165.534744 
	C749.184753,146.455704 750.862366,119.633430 766.535095,102.692505 
	C778.218445,90.063828 799.621338,82.172943 823.427063,97.349258 
	C823.651489,95.214874 823.847595,93.349770 824.078491,91.153229 
	C831.451416,91.153229 838.850769,91.153229 846.576050,91.153229 
	C846.668518,92.716362 846.828735,94.169899 846.829529,95.623520 
	C846.844421,123.120895 846.963196,150.619080 846.783997,178.115295 
	C846.705261,190.198624 844.148560,201.588806 834.647949,210.651611 
M777.962097,133.719528 
	C776.360352,152.480179 794.105286,165.680359 812.550537,157.225082 
	C819.266907,154.146286 823.800964,150.972748 822.931885,142.231140 
	C822.375000,136.630219 823.015442,130.919250 822.723145,125.278099 
	C822.623047,123.345886 821.802917,121.004044 820.486023,119.656013 
	C813.184753,112.182457 804.162598,109.361099 794.123657,112.259972 
	C784.124390,115.147430 779.327271,122.799210 777.962097,133.719528 
z"/>
<path fill="#FEFAFB" opacity="1.000000" stroke="none" 
	d="
M1066.523438,160.999390 
	C1066.523315,167.475906 1066.523315,173.452652 1066.523315,179.801453 
	C1058.789307,179.801453 1051.423950,179.801453 1043.863647,179.801453 
	C1043.590454,177.830658 1043.328369,175.939499 1043.054688,173.965225 
	C1017.935181,185.707718 997.765869,183.027206 984.371765,166.328720 
	C970.141663,148.587952 969.895569,123.629379 983.809753,105.441292 
	C994.020142,92.094719 1017.271057,80.986465 1043.056641,97.022125 
	C1043.329468,95.008820 1043.584229,93.128632 1043.866089,91.048973 
	C1051.313599,91.048973 1058.584717,91.048973 1066.523438,91.048973 
	C1066.523438,114.301483 1066.523438,137.400543 1066.523438,160.999390 
M1027.057007,111.968155 
	C1018.407227,110.191162 1010.485413,111.471069 1004.168396,118.081963 
	C995.143860,127.526360 995.380371,144.361862 1004.473267,153.372314 
	C1013.363525,162.181992 1029.957275,161.953461 1039.184570,152.501419 
	C1041.027954,150.613174 1042.081543,147.365753 1042.333374,144.637466 
	C1042.819824,139.365463 1042.025146,133.968689 1042.586792,128.711792 
	C1043.334106,121.716759 1039.504395,117.960106 1034.226440,114.948700 
	C1032.224365,113.806389 1029.985107,113.079880 1027.057007,111.968155 
z"/>
<path fill="#FEFCFD" opacity="1.000000" stroke="none" 
	d="
M912.827820,81.003769 
	C912.827820,75.868683 912.827820,71.232933 912.827820,66.298355 
	C920.884460,66.298355 928.601196,66.298355 936.799561,66.298355 
	C936.799561,74.403374 936.799561,82.321060 936.799561,90.667824 
	C945.198547,90.667824 953.133301,90.667824 961.450684,90.667824 
	C961.450684,97.481720 961.450684,103.872047 961.450684,110.840569 
	C953.499451,110.840569 945.446045,110.840569 937.059326,110.840569 
	C937.059326,124.498863 936.692383,137.605133 937.215393,150.675797 
	C937.473633,157.129349 942.800476,160.531921 951.040649,160.772308 
	C954.336670,160.868469 957.649475,160.389282 961.487366,160.136978 
	C962.709229,166.636108 963.924622,173.100922 965.128906,179.506775 
	C952.329712,184.470200 926.520935,183.090179 917.873779,166.492889 
	C915.060791,161.093521 913.370239,154.522842 913.208496,148.433655 
	C912.616089,126.135849 912.883911,103.815178 912.827820,81.003769 
z"/>
<path fill="#FEFBFB" opacity="1.000000" stroke="none" 
	d="
M1087.367676,171.897751 
	C1087.367676,131.482590 1087.367676,91.552406 1087.367676,51.398224 
	C1095.384888,51.398224 1102.970337,51.398224 1110.933960,51.398224 
	C1110.933960,94.243576 1110.933960,136.914597 1110.933960,179.836517 
	C1103.194092,179.836517 1095.597778,179.836517 1087.367676,179.836517 
	C1087.367676,177.283432 1087.367676,174.833084 1087.367676,171.897751 
z"/>
<path fill="#FEFDFD" opacity="1.000000" stroke="none" 
	d="
M876.036682,90.829170 
	C881.471313,90.829170 886.413391,90.829170 891.589600,90.829170 
	C891.589600,120.786736 891.589600,150.169174 891.589600,179.861313 
	C883.799622,179.861313 876.214722,179.861313 868.227661,179.861313 
	C868.227661,150.446320 868.227661,120.941467 868.227661,90.829170 
	C870.669678,90.829170 873.106934,90.829170 876.036682,90.829170 
z"/>
<path fill="#FFFFFF" opacity="1.000000" stroke="none" 
	d="
M714.002258,163.997345 
	C714.002258,139.522659 714.002258,115.547211 714.002258,91.204376 
	C721.968811,91.204376 729.683899,91.204376 737.700928,91.204376 
	C737.700928,120.599174 737.700928,150.013062 737.700928,179.795898 
	C730.030762,179.795898 722.315674,179.795898 714.002258,179.795898 
	C714.002258,174.714020 714.002258,169.605286 714.002258,163.997345 
z"/>
<path fill="#FDF9F9" opacity="1.000000" stroke="none" 
	d="
M731.454712,50.238754 
	C739.629944,54.704620 742.511780,61.674099 739.517578,68.998436 
	C736.650940,76.010765 729.282776,79.435417 721.897644,77.188065 
	C714.096069,74.813988 710.304871,68.371704 711.887573,60.178005 
	C713.137329,53.708614 720.045532,48.790470 727.168030,49.367222 
	C728.487671,49.474075 729.785278,49.851254 731.454712,50.238754 
z"/>
<path fill="#FDF9F9" opacity="1.000000" stroke="none" 
	d="
M883.201782,77.452194 
	C874.308289,78.595329 867.816772,74.812080 865.599243,67.509346 
	C863.667664,61.148754 867.056152,53.702660 873.184692,50.840294 
	C879.992371,47.660740 888.142578,49.866169 892.110291,55.961494 
	C897.268188,63.885212 893.407715,73.600121 883.201782,77.452194 
z"/>
<path fill="#C6373E" opacity="1.000000" stroke="none" 
	d="
M282.141052,89.848114 
	C293.162292,102.719551 303.936951,115.336021 315.602539,128.995728 
	C315.602539,102.423279 315.602539,77.104500 315.602539,51.478851 
	C326.292786,51.478851 336.355042,51.478851 346.710663,51.478851 
	C346.710663,94.308968 346.710663,137.006516 346.710663,180.157852 
	C336.896057,180.157852 327.275848,180.303802 317.668762,180.014099 
	C316.068665,179.965866 314.202942,178.299515 313.006165,176.910355 
	C300.422180,162.303375 287.949829,147.600174 275.445465,132.924606 
	C267.050568,123.072083 258.653717,113.221222 249.481674,102.459007 
	C249.481674,128.825638 249.481674,154.122162 249.481674,179.792084 
	C238.849075,179.792084 228.779129,179.792084 218.352173,179.792084 
	C218.352173,137.243484 218.352173,94.535057 218.352173,51.212219 
	C228.254761,51.212219 238.186523,51.144249 248.114258,51.312817 
	C249.156601,51.330517 250.362381,52.583324 251.176529,53.533649 
	C261.449585,65.524559 271.664581,77.565216 282.141052,89.848114 
z"/>
<path fill="#C73940" opacity="1.000000" stroke="none" 
	d="
M454.479858,51.507427 
	C486.688477,56.508587 506.983490,75.996460 512.266602,106.575699 
	C517.589294,137.384186 495.875336,170.600037 465.494232,177.793030 
	C460.204742,179.045364 454.691162,179.891632 449.270111,179.953003 
	C427.796509,180.196121 406.318512,180.052917 384.501038,180.052917 
	C384.501038,169.780914 384.501038,159.713226 384.501038,149.142685 
	C389.603638,149.142685 394.687653,149.142685 400.119598,149.142685 
	C400.119598,126.915680 400.119598,105.183372 400.119598,82.708633 
	C395.035248,82.708633 389.822510,82.708633 384.444305,82.708633 
	C384.444305,71.898102 384.444305,61.829567 384.444305,51.491989 
	C407.826965,51.491989 430.926483,51.491989 454.479858,51.507427 
M468.201904,89.196060 
	C457.305847,80.331406 444.579254,82.772034 432.113525,82.697319 
	C432.113525,105.095604 432.113525,126.830971 432.113525,148.985641 
	C437.501678,148.985641 442.630157,149.086578 447.751831,148.944000 
	C450.398407,148.870316 453.064941,148.529587 455.667511,148.025635 
	C468.211914,145.596603 478.587891,135.236069 480.973724,122.261925 
	C483.397858,109.079613 479.419250,98.063324 468.201904,89.196060 
z"/>
<path fill="#C73940" opacity="1.000000" stroke="none" 
	d="
M86.702637,58.655136 
	C126.016212,39.197624 170.909760,61.053974 179.670090,103.643555 
	C180.403381,107.208557 180.770020,110.910233 180.788055,114.550980 
	C180.891159,135.372147 180.838760,156.194092 180.830353,177.015778 
	C180.830032,177.826035 180.739761,178.636276 180.670151,179.802460 
	C170.423996,179.802460 160.361572,179.802460 149.756393,179.802460 
	C149.756393,174.796173 149.756393,169.724701 149.756393,164.247070 
	C127.353004,164.247070 105.482475,164.247070 83.178207,164.247070 
	C83.178207,169.256104 83.178207,174.346191 83.178207,179.803009 
	C72.709274,179.803009 62.661606,179.803009 52.573700,179.803009 
	C52.432213,179.577225 52.111778,179.304459 52.111221,179.031021 
	C52.065517,156.545319 51.109081,134.010757 52.278919,111.587219 
	C53.507534,88.036942 65.411736,70.219795 86.702637,58.655136 
M111.499680,132.484741 
	C124.067741,132.484741 136.635803,132.484741 150.575256,132.484741 
	C149.359772,122.282051 149.323029,112.845406 146.922394,104.054283 
	C143.671463,92.149429 134.212936,85.516586 122.464432,83.247330 
	C110.000931,80.839943 99.250114,84.775604 90.867798,94.663734 
	C81.411942,105.818230 82.942589,119.032616 83.184456,132.484802 
	C92.552177,132.484802 101.525925,132.484802 111.499680,132.484741 
z"/>
<path fill="#C6373E" opacity="1.000000" stroke="none" 
	d="
M636.965332,73.835114 
	C658.527100,75.935181 673.246704,93.247139 673.073730,115.800034 
	C672.878723,141.219818 656.196045,157.847717 630.729248,157.985413 
	C624.922302,158.016800 619.115051,157.990036 612.918945,157.990036 
	C612.918945,129.697067 612.918945,101.716026 612.918945,73.808990 
	C620.989380,73.808990 628.752563,73.808990 636.965332,73.835114 
z"/>
<path fill="#C6383E" opacity="1.000000" stroke="none" 
	d="
M777.981018,133.277100 
	C779.327271,122.799210 784.124390,115.147430 794.123657,112.259972 
	C804.162598,109.361099 813.184753,112.182457 820.486023,119.656013 
	C821.802917,121.004044 822.623047,123.345886 822.723145,125.278099 
	C823.015442,130.919250 822.375000,136.630219 822.931885,142.231140 
	C823.800964,150.972748 819.266907,154.146286 812.550537,157.225082 
	C794.105286,165.680359 776.360352,152.480179 777.981018,133.277100 
z"/>
<path fill="#C6373E" opacity="1.000000" stroke="none" 
	d="
M1027.455444,112.065994 
	C1029.985107,113.079880 1032.224365,113.806389 1034.226440,114.948700 
	C1039.504395,117.960106 1043.334106,121.716759 1042.586792,128.711792 
	C1042.025146,133.968689 1042.819824,139.365463 1042.333374,144.637466 
	C1042.081543,147.365753 1041.027954,150.613174 1039.184570,152.501419 
	C1029.957275,161.953461 1013.363525,162.181992 1004.473267,153.372314 
	C995.380371,144.361862 995.143860,127.526360 1004.168396,118.081963 
	C1010.485413,111.471069 1018.407227,110.191162 1027.455444,112.065994 
z"/>
<path fill="#FFFFFF" opacity="1.000000" stroke="none" 
	d="
M468.481934,89.430809 
	C479.419250,98.063324 483.397858,109.079613 480.973724,122.261925 
	C478.587891,135.236069 468.211914,145.596603 455.667511,148.025635 
	C453.064941,148.529587 450.398407,148.870316 447.751831,148.944000 
	C442.630157,149.086578 437.501678,148.985641 432.113525,148.985641 
	C432.113525,126.830971 432.113525,105.095604 432.113525,82.697319 
	C444.579254,82.772034 457.305847,80.331406 468.481934,89.430809 
z"/>
<path fill="#FFFFFF" opacity="1.000000" stroke="none" 
	d="
M110.999672,132.484772 
	C101.525925,132.484802 92.552177,132.484802 83.184456,132.484802 
	C82.942589,119.032616 81.411942,105.818230 90.867798,94.663734 
	C99.250114,84.775604 110.000931,80.839943 122.464432,83.247330 
	C134.212936,85.516586 143.671463,92.149429 146.922394,104.054283 
	C149.323029,112.845406 149.359772,122.282051 150.575256,132.484741 
	C136.635803,132.484741 124.067741,132.484741 110.999672,132.484772 
z"/>
</svg>